<?xml version="1.0" encoding="utf-8" standalone="no"?>
<!DOCTYPE svg PUBLIC "-//W3C//DTD SVG 1.1//EN"
  "http://www.w3.org/Graphics/SVG/1.1/DTD/svg11.dtd">
<!-- Created with matplotlib (https://matplotlib.org/) -->
<svg height="319.41825pt" version="1.1" viewBox="0 0 444.527812 319.41825" width="444.527812pt" xmlns="http://www.w3.org/2000/svg" xmlns:xlink="http://www.w3.org/1999/xlink">
 <defs>
  <style type="text/css">
*{stroke-linecap:butt;stroke-linejoin:round;}
  </style>
 </defs>
 <g id="figure_1">
  <g id="patch_1">
   <path d="M 0 319.41825 
L 444.527812 319.41825 
L 444.527812 0 
L 0 0 
z
" style="fill:#ffffff;"/>
  </g>
  <g id="axes_1">
   <g id="patch_2">
    <path d="M 43.703906 278.46825 
L 400.823906 278.46825 
L 400.823906 12.35625 
L 43.703906 12.35625 
z
" style="fill:#ffffff;"/>
   </g>
   <g id="matplotlib.axis_1">
    <g id="xtick_1">
     <g id="line2d_1">
      <defs>
       <path d="M 0 0 
L 0 -3.5 
" id="md97488d310" style="stroke:#000000;stroke-width:0.8;"/>
      </defs>
      <g>
       <use style="stroke:#000000;stroke-width:0.8;" x="59.936634" xlink:href="#md97488d310" y="278.46825"/>
      </g>
     </g>
     <g id="text_1">
      <!-- 16 -->
      <defs>
       <path d="M 21.875 56.25 
Q 16.796875 51.171875 8.984375 46.484375 
L 8.984375 53.90625 
Q 18.75 60.546875 25 69.53125 
L 29.6875 69.53125 
L 29.6875 2.34375 
L 21.875 2.34375 
z
" id="SimHei-49"/>
       <path d="M 3.515625 19.53125 
Q 4.296875 30.859375 6.046875 34.765625 
Q 7.8125 38.671875 11.328125 44.53125 
L 27.34375 69.53125 
L 36.328125 69.53125 
L 19.921875 43.75 
Q 30.46875 46.484375 36.71875 42.96875 
Q 42.96875 39.453125 45.109375 34.953125 
Q 47.265625 30.46875 47.453125 25.1875 
Q 47.65625 19.921875 45.890625 14.84375 
Q 44.140625 9.765625 39.640625 5.65625 
Q 35.15625 1.5625 27.140625 1.171875 
Q 19.140625 0.78125 13.46875 4.09375 
Q 7.8125 7.421875 5.65625 13.46875 
Q 3.515625 19.53125 4.296875 30.859375 
z
M 12.5 16.015625 
Q 19.53125 8.59375 25.390625 8.203125 
Q 31.25 7.8125 35.15625 12.109375 
Q 39.0625 16.40625 39.0625 24.609375 
Q 39.0625 32.8125 34.171875 35.9375 
Q 29.296875 39.0625 23.234375 38.28125 
Q 17.1875 37.5 14.453125 32.421875 
Q 11.71875 27.34375 12.109375 21.671875 
Q 12.5 16.015625 19.53125 8.59375 
z
" id="SimHei-54"/>
      </defs>
      <g transform="translate(52.436634 292.28075)scale(0.15 -0.15)">
       <use xlink:href="#SimHei-49"/>
       <use x="50" xlink:href="#SimHei-54"/>
      </g>
     </g>
    </g>
    <g id="xtick_2">
     <g id="line2d_2">
      <g>
       <use style="stroke:#000000;stroke-width:0.8;" x="141.10027" xlink:href="#md97488d310" y="278.46825"/>
      </g>
     </g>
     <g id="text_2">
      <!-- 18 -->
      <defs>
       <path d="M 2.734375 16.796875 
Q 2.734375 26.171875 5.078125 30.65625 
Q 7.421875 35.15625 12.890625 37.890625 
Q 8.203125 40.625 6.640625 43.9375 
Q 5.078125 47.265625 4.875 51.5625 
Q 4.6875 55.859375 6.046875 58.984375 
Q 7.421875 62.109375 10.15625 64.84375 
Q 12.890625 67.578125 16.203125 68.546875 
Q 19.53125 69.53125 23.4375 69.53125 
Q 27.34375 69.53125 30.46875 68.75 
Q 33.59375 67.96875 37.109375 65.421875 
Q 40.625 62.890625 42.1875 58.203125 
Q 43.75 53.515625 41.984375 47.265625 
Q 40.234375 41.015625 32.8125 37.5 
Q 39.453125 35.546875 42.1875 31.4375 
Q 44.921875 27.34375 44.921875 21.484375 
Q 44.921875 15.625 43.15625 12.109375 
Q 41.40625 8.59375 39.25 6.25 
Q 37.109375 3.90625 33.390625 2.53125 
Q 29.6875 1.171875 24.015625 1.171875 
Q 18.359375 1.171875 14.25 2.53125 
Q 10.15625 3.90625 7.421875 6.640625 
Q 4.6875 9.375 3.703125 13.078125 
Q 2.734375 16.796875 2.734375 26.171875 
z
M 10.9375 26.5625 
Q 10.546875 17.1875 12.296875 13.671875 
Q 14.0625 10.15625 18.75 9.171875 
Q 23.4375 8.203125 28.515625 9.375 
Q 33.59375 10.546875 35.546875 14.84375 
Q 37.5 19.140625 36.90625 23.4375 
Q 36.328125 27.734375 32.03125 30.65625 
Q 27.734375 33.59375 22.65625 33.203125 
Q 17.578125 32.8125 14.25 29.6875 
Q 10.9375 26.5625 10.546875 17.1875 
z
M 12.109375 56.25 
Q 12.109375 48.4375 14.84375 44.921875 
Q 17.578125 41.40625 23.4375 41.40625 
Q 29.296875 41.40625 32.21875 44.921875 
Q 35.15625 48.4375 34.953125 53.3125 
Q 34.765625 58.203125 31.4375 60.546875 
Q 28.125 62.890625 22.453125 62.5 
Q 16.796875 62.109375 14.453125 59.171875 
Q 12.109375 56.25 12.109375 48.4375 
z
" id="SimHei-56"/>
      </defs>
      <g transform="translate(133.60027 292.28075)scale(0.15 -0.15)">
       <use xlink:href="#SimHei-49"/>
       <use x="50" xlink:href="#SimHei-56"/>
      </g>
     </g>
    </g>
    <g id="xtick_3">
     <g id="line2d_3">
      <g>
       <use style="stroke:#000000;stroke-width:0.8;" x="222.263906" xlink:href="#md97488d310" y="278.46825"/>
      </g>
     </g>
     <g id="text_3">
      <!-- 20 -->
      <defs>
       <path d="M 4.6875 3.90625 
Q 5.078125 9.765625 10.15625 14.453125 
Q 15.234375 19.140625 23.046875 29.09375 
Q 30.859375 39.0625 33.203125 44.53125 
Q 35.546875 50 34.953125 53.90625 
Q 34.375 57.8125 31.25 60.34375 
Q 28.125 62.890625 24.015625 62.5 
Q 19.921875 62.109375 16.203125 59.375 
Q 12.5 56.640625 10.546875 51.171875 
L 3.125 52.34375 
Q 6.25 61.328125 11.125 65.421875 
Q 16.015625 69.53125 22.65625 69.921875 
Q 26.5625 70.3125 29.6875 69.71875 
Q 32.8125 69.140625 36.125 66.984375 
Q 39.453125 64.84375 41.59375 60.546875 
Q 43.75 56.25 43.15625 50.1875 
Q 42.578125 44.140625 37.109375 35.734375 
Q 31.640625 27.34375 16.015625 9.375 
L 44.140625 9.375 
L 44.140625 2.34375 
L 4.6875 2.34375 
z
" id="SimHei-50"/>
       <path d="M 3.125 29.296875 
Q 3.90625 50 6.4375 56.046875 
Q 8.984375 62.109375 13.671875 66.015625 
Q 18.359375 69.921875 25.1875 69.921875 
Q 32.03125 69.921875 37.109375 64.25 
Q 42.1875 58.59375 43.75 50 
Q 45.3125 41.40625 44.71875 30.265625 
Q 44.140625 19.140625 40.8125 12.109375 
Q 37.5 5.078125 30.859375 2.34375 
Q 24.21875 -0.390625 17.578125 2.921875 
Q 10.9375 6.25 8.203125 11.71875 
Q 5.46875 17.1875 4.296875 23.234375 
Q 3.125 29.296875 3.90625 50 
z
M 12.890625 52.734375 
Q 10.546875 31.25 12.5 22.84375 
Q 14.453125 14.453125 18.9375 10.9375 
Q 23.4375 7.421875 28.125 9.5625 
Q 32.8125 11.71875 34.953125 18.15625 
Q 37.109375 24.609375 37.109375 32.21875 
Q 37.109375 39.84375 36.515625 46.09375 
Q 35.9375 52.34375 33 57.421875 
Q 30.078125 62.5 25.1875 62.6875 
Q 20.3125 62.890625 16.59375 57.8125 
Q 12.890625 52.734375 10.546875 31.25 
z
" id="SimHei-48"/>
      </defs>
      <g transform="translate(214.763906 292.28075)scale(0.15 -0.15)">
       <use xlink:href="#SimHei-50"/>
       <use x="50" xlink:href="#SimHei-48"/>
      </g>
     </g>
    </g>
    <g id="xtick_4">
     <g id="line2d_4">
      <g>
       <use style="stroke:#000000;stroke-width:0.8;" x="303.427543" xlink:href="#md97488d310" y="278.46825"/>
      </g>
     </g>
     <g id="text_4">
      <!-- 22 -->
      <g transform="translate(295.927543 292.28075)scale(0.15 -0.15)">
       <use xlink:href="#SimHei-50"/>
       <use x="50" xlink:href="#SimHei-50"/>
      </g>
     </g>
    </g>
    <g id="xtick_5">
     <g id="line2d_5">
      <g>
       <use style="stroke:#000000;stroke-width:0.8;" x="384.591179" xlink:href="#md97488d310" y="278.46825"/>
      </g>
     </g>
     <g id="text_5">
      <!-- 24 -->
      <defs>
       <path d="M 31.25 17.1875 
L 1.171875 17.1875 
L 1.171875 23.828125 
L 32.8125 69.53125 
L 38.671875 69.53125 
L 38.671875 23.828125 
L 48.046875 23.828125 
L 48.046875 17.1875 
L 38.671875 17.1875 
L 38.671875 2.34375 
L 31.25 2.34375 
z
M 31.25 23.828125 
L 31.25 54.6875 
L 9.375 23.828125 
z
" id="SimHei-52"/>
      </defs>
      <g transform="translate(377.091179 292.28075)scale(0.15 -0.15)">
       <use xlink:href="#SimHei-50"/>
       <use x="50" xlink:href="#SimHei-52"/>
      </g>
     </g>
    </g>
    <g id="text_6">
     <!-- 隐层节点数 -->
     <defs>
      <path d="M 63.28125 79.296875 
Q 60.15625 76.5625 57.8125 72.65625 
L 82.03125 72.65625 
Q 78.125 66.015625 76.953125 64.640625 
Q 75.78125 63.28125 73.046875 57.421875 
L 88.28125 57.421875 
Q 87.890625 52.734375 87.890625 45.703125 
L 87.890625 36.71875 
Q 87.890625 30.46875 88.28125 25.390625 
L 56.25 25.390625 
Q 48.4375 25.390625 42.578125 25 
L 42.578125 31.640625 
Q 48.046875 31.25 55.859375 31.25 
L 80.859375 31.25 
L 80.859375 38.671875 
L 56.25 38.671875 
Q 48.4375 38.671875 42.578125 38.28125 
L 42.578125 44.921875 
Q 48.4375 44.140625 55.859375 44.140625 
L 80.859375 44.140625 
L 80.859375 51.953125 
L 59.375 51.953125 
Q 51.953125 51.953125 44.53125 51.5625 
L 44.53125 55.859375 
Q 42.578125 53.90625 40.625 51.5625 
Q 37.109375 53.90625 33.984375 55.859375 
Q 41.015625 61.71875 45.109375 67.375 
Q 49.21875 73.046875 53.515625 82.8125 
Q 57.421875 80.859375 63.28125 79.296875 
z
M 35.15625 74.609375 
Q 33.203125 67.96875 30.859375 60.9375 
Q 28.515625 53.90625 26.953125 45.3125 
Q 33.203125 37.109375 34.375 31.828125 
Q 35.546875 26.5625 34.765625 22.0625 
Q 33.984375 17.578125 30.265625 15.8125 
Q 26.5625 14.0625 21.09375 12.5 
Q 19.921875 16.796875 16.796875 20.3125 
Q 22.265625 20.703125 25.1875 21.671875 
Q 28.125 22.65625 27.53125 27.53125 
Q 26.953125 32.421875 24.609375 36.328125 
Q 22.265625 40.234375 19.53125 44.140625 
Q 21.09375 49.609375 22.84375 56.046875 
Q 24.609375 62.5 25.78125 69.140625 
L 14.453125 69.140625 
L 14.453125 -8.203125 
L 7.03125 -8.203125 
Q 7.421875 0.390625 7.421875 7.421875 
L 7.421875 58.203125 
Q 7.421875 68.359375 7.03125 74.609375 
L 35.15625 74.609375 
z
M 56.25 16.40625 
Q 55.859375 13.28125 55.859375 9.375 
L 55.859375 3.125 
Q 55.859375 -1.953125 61.71875 -1.953125 
L 67.1875 -1.953125 
Q 71.875 -1.5625 72.65625 0.390625 
Q 73.4375 2.34375 73.828125 7.421875 
Q 78.125 5.078125 82.03125 4.296875 
Q 79.6875 -5.078125 76.75 -6.640625 
Q 73.828125 -8.203125 63.671875 -8.390625 
Q 53.515625 -8.59375 51.171875 -7.21875 
Q 48.828125 -5.859375 48.828125 -1.171875 
L 48.828125 5.859375 
Q 48.828125 12.109375 48.4375 16.40625 
L 56.25 16.40625 
z
M 46.875 57.8125 
Q 52.34375 57.421875 59.375 57.421875 
L 65.625 57.421875 
Q 67.96875 63.28125 70.3125 67.1875 
L 54.296875 67.1875 
Q 51.5625 63.671875 46.875 57.8125 
z
M 44.921875 14.0625 
Q 42.96875 11.71875 40.421875 5.859375 
Q 37.890625 0 34.765625 -5.46875 
Q 31.640625 -3.515625 27.734375 -2.34375 
Q 31.640625 3.125 33.390625 7.21875 
Q 35.15625 11.328125 37.109375 17.1875 
Q 40.625 15.625 44.921875 14.0625 
z
M 86.71875 19.140625 
Q 89.0625 15.234375 91.40625 10.9375 
Q 93.75 6.640625 96.484375 1.953125 
Q 92.96875 0.78125 89.84375 -1.171875 
Q 87.109375 4.6875 84.953125 8.203125 
Q 82.8125 11.71875 80.46875 16.015625 
Q 83.203125 17.1875 86.71875 19.140625 
z
M 66.796875 22.265625 
Q 67.96875 19.53125 69.328125 16.796875 
Q 70.703125 14.0625 71.875 10.15625 
Q 68.359375 8.984375 65.234375 7.8125 
L 63.28125 13.671875 
Q 62.890625 15.625 60.15625 19.921875 
Q 64.0625 20.703125 66.796875 22.265625 
z
" id="SimHei-38544"/>
      <path d="M 84.765625 78.515625 
Q 84.375 70.3125 84.375 65.234375 
Q 84.375 60.546875 84.765625 53.515625 
L 23.046875 53.515625 
Q 23.046875 36.328125 21.484375 21.875 
Q 19.921875 7.421875 11.328125 -10.15625 
Q 8.203125 -7.8125 4.296875 -5.859375 
Q 8.984375 0.78125 11.328125 9.171875 
Q 13.671875 17.578125 14.84375 28.90625 
Q 16.015625 40.234375 16.015625 53.125 
Q 16.015625 66.40625 15.625 78.515625 
L 84.765625 78.515625 
z
M 79.296875 24.609375 
Q 85.15625 24.609375 92.1875 25 
L 92.1875 17.578125 
Q 85.15625 17.96875 79.296875 17.96875 
L 55.078125 17.96875 
Q 48.4375 6.640625 41.015625 -0.390625 
Q 54.296875 0 75.390625 0.78125 
Q 71.875 4.6875 67.1875 9.375 
Q 70.3125 12.109375 73.046875 14.453125 
Q 83.203125 4.6875 92.1875 -5.46875 
Q 89.453125 -7.8125 85.546875 -10.9375 
Q 83.203125 -8.203125 80.46875 -5.078125 
Q 67.578125 -5.46875 53.3125 -6.640625 
Q 39.0625 -7.8125 33.59375 -9.375 
Q 32.03125 -4.6875 30.078125 -0.78125 
Q 33.984375 0.390625 38.671875 5.859375 
Q 43.359375 11.328125 46.09375 17.96875 
L 37.890625 17.96875 
Q 33.203125 17.96875 25 17.578125 
L 25 25 
Q 33.203125 24.609375 39.0625 24.609375 
z
M 77.734375 60.15625 
L 77.734375 71.875 
L 23.046875 71.875 
L 23.046875 60.15625 
z
M 69.921875 42.96875 
Q 77.734375 42.96875 84.375 43.359375 
L 84.375 35.9375 
Q 79.296875 36.328125 70.703125 36.328125 
L 45.703125 36.328125 
Q 39.453125 36.328125 32.421875 35.9375 
L 32.421875 43.359375 
Q 39.453125 42.96875 45.703125 42.96875 
z
" id="SimHei-23618"/>
      <path d="M 65.625 3.125 
Q 64.84375 7.8125 61.71875 12.5 
Q 69.53125 12.5 73.625 13.28125 
Q 77.734375 14.0625 78.125 17.96875 
L 78.90625 39.0625 
L 45.703125 39.0625 
L 45.703125 5.078125 
Q 45.703125 -1.953125 46.09375 -9.375 
L 37.109375 -9.375 
Q 37.890625 -2.34375 37.890625 5.078125 
L 37.890625 39.0625 
L 29.296875 39.0625 
Q 16.40625 39.0625 8.59375 38.671875 
L 8.59375 46.09375 
Q 16.796875 45.703125 25.390625 45.703125 
L 87.890625 45.703125 
Q 86.71875 29.296875 86.328125 19.140625 
Q 85.9375 8.984375 80.46875 6.4375 
Q 75 3.90625 65.625 3.125 
z
M 38.671875 61.71875 
Q 38.671875 54.6875 39.0625 49.609375 
L 30.46875 49.609375 
Q 30.859375 55.46875 30.859375 61.71875 
L 17.578125 61.71875 
Q 12.109375 61.71875 5.46875 60.9375 
L 5.46875 68.75 
Q 12.109375 68.359375 17.578125 68.359375 
L 30.859375 68.359375 
Q 30.859375 75.78125 30.46875 80.859375 
L 39.0625 80.859375 
Q 38.671875 75.78125 38.671875 68.359375 
L 59.375 68.359375 
Q 59.375 76.171875 58.984375 80.859375 
L 67.96875 80.859375 
Q 67.578125 76.171875 67.578125 68.359375 
L 80.078125 68.359375 
Q 87.5 68.359375 93.75 68.75 
L 93.75 61.328125 
Q 87.5 61.71875 80.078125 61.71875 
L 67.578125 61.71875 
Q 67.578125 55.46875 67.96875 49.609375 
L 58.984375 49.609375 
Q 59.375 55.859375 59.375 61.71875 
z
" id="SimHei-33410"/>
      <path d="M 51.953125 81.25 
Q 51.5625 76.953125 51.5625 68.359375 
L 76.5625 68.359375 
Q 82.421875 68.359375 89.453125 68.75 
L 89.453125 61.328125 
Q 82.8125 61.71875 76.5625 61.71875 
L 51.5625 61.71875 
L 51.5625 50.390625 
L 81.640625 50.390625 
Q 81.25 42.1875 81.25 33.59375 
Q 81.25 25.390625 81.640625 18.359375 
L 18.359375 18.359375 
Q 18.75 25.390625 18.75 33.984375 
Q 18.75 42.578125 18.359375 50.390625 
L 43.359375 50.390625 
L 43.359375 70.3125 
Q 43.359375 76.5625 42.96875 81.25 
L 51.953125 81.25 
z
M 73.4375 25 
L 73.4375 43.75 
L 26.953125 43.75 
L 26.953125 25 
z
M 23.4375 11.71875 
Q 16.015625 -3.90625 12.890625 -9.765625 
Q 9.765625 -7.421875 5.078125 -5.859375 
Q 10.15625 0.78125 14.84375 14.453125 
Q 18.75 12.5 23.4375 11.71875 
z
M 83.203125 13.28125 
Q 90.234375 2.34375 94.921875 -5.46875 
Q 92.578125 -6.640625 87.109375 -9.765625 
Q 83.984375 -2.34375 76.5625 8.984375 
Q 80.46875 10.9375 83.203125 13.28125 
z
M 62.109375 -8.984375 
Q 58.984375 -1.5625 53.125 8.984375 
Q 55.859375 10.546875 59.765625 12.890625 
Q 67.96875 -1.171875 69.53125 -5.078125 
Q 65.625 -7.03125 62.109375 -8.984375 
z
M 37.109375 -8.984375 
Q 36.71875 -4.6875 30.859375 8.59375 
Q 34.375 9.765625 37.890625 12.109375 
Q 43.75 -1.171875 45.3125 -5.46875 
Q 41.015625 -7.03125 37.109375 -8.984375 
z
" id="SimHei-28857"/>
      <path d="M 70.703125 76.953125 
Q 69.921875 75 68.75 71.671875 
Q 67.578125 68.359375 65.234375 59.765625 
L 83.203125 59.765625 
Q 87.109375 59.765625 92.578125 60.15625 
L 92.578125 53.125 
Q 88.28125 53.515625 85.9375 53.515625 
Q 85.9375 47.265625 83.78125 33.78125 
Q 81.640625 20.3125 76.171875 10.546875 
Q 80.078125 5.859375 84.953125 2.140625 
Q 89.84375 -1.5625 94.140625 -3.125 
Q 89.453125 -6.640625 87.890625 -9.765625 
Q 83.203125 -7.03125 79.296875 -3.515625 
Q 75.390625 0 71.484375 5.078125 
Q 67.1875 0.390625 62.296875 -2.921875 
Q 57.421875 -6.25 50 -10.15625 
Q 48.046875 -6.640625 44.53125 -4.6875 
Q 50.390625 -2.34375 57.03125 1.953125 
Q 63.671875 6.25 67.1875 10.546875 
Q 64.453125 16.015625 61.90625 22.265625 
Q 59.375 28.515625 57.421875 38.671875 
Q 56.25 35.546875 53.515625 30.46875 
Q 50.78125 32.03125 46.875 33.59375 
Q 53.125 44.53125 57.03125 57.421875 
Q 60.9375 70.3125 62.109375 79.6875 
Q 66.796875 77.734375 70.703125 76.953125 
z
M 32.8125 35.15625 
Q 31.25 33.59375 29.296875 30.078125 
L 50.78125 30.078125 
Q 48.4375 20.3125 42.578125 10.546875 
Q 48.828125 8.203125 52.34375 6.25 
Q 50.390625 3.515625 48.828125 0.390625 
Q 45.3125 2.734375 38.28125 5.078125 
Q 30.46875 -3.515625 11.328125 -10.15625 
Q 9.375 -5.859375 6.25 -4.296875 
Q 24.609375 0 31.25 7.421875 
Q 20.3125 10.15625 13.28125 12.109375 
Q 15.625 15.625 19.53125 23.828125 
Q 15.625 23.828125 6.640625 23.4375 
L 6.640625 30.46875 
Q 14.0625 30.078125 21.875 30.078125 
Q 23.4375 33.59375 24.21875 37.890625 
Q 28.515625 36.328125 32.8125 35.15625 
z
M 27.734375 61.71875 
Q 27.734375 71.09375 27.34375 79.6875 
L 35.15625 79.6875 
Q 34.765625 71.484375 34.765625 61.71875 
Q 48.046875 61.71875 53.515625 62.109375 
L 53.515625 55.078125 
Q 48.046875 55.46875 34.765625 55.46875 
Q 34.765625 44.140625 35.15625 37.890625 
L 27.34375 37.890625 
Q 27.734375 43.359375 27.734375 51.5625 
Q 25.78125 48.4375 20.3125 43.546875 
Q 14.84375 38.671875 10.15625 35.9375 
Q 8.203125 39.453125 4.296875 41.015625 
Q 7.8125 42.1875 13.671875 46.484375 
Q 19.53125 50.78125 22.65625 55.46875 
Q 14.84375 55.46875 7.8125 55.078125 
L 7.8125 62.109375 
Q 14.453125 61.71875 27.734375 61.71875 
z
M 62.109375 49.609375 
Q 65.625 26.5625 71.875 17.578125 
Q 75.78125 26.5625 77.140625 35.734375 
Q 78.515625 44.921875 78.90625 53.515625 
L 63.671875 53.515625 
L 62.109375 49.609375 
z
M 22.65625 15.625 
Q 27.34375 14.453125 35.546875 12.5 
Q 38.671875 16.40625 41.40625 23.828125 
L 26.953125 23.828125 
Q 25 19.921875 22.65625 15.625 
z
M 51.953125 75.390625 
Q 50 72.265625 48.828125 69.53125 
Q 47.65625 66.796875 45.703125 62.890625 
Q 42.578125 64.453125 39.453125 65.234375 
Q 42.578125 70.3125 45.3125 78.125 
Q 49.21875 76.171875 51.953125 75.390625 
z
M 40.234375 52.734375 
Q 45.3125 47.65625 50 42.578125 
Q 47.65625 40.625 44.921875 37.890625 
Q 39.453125 44.53125 35.9375 48.4375 
Q 38.28125 50.390625 40.234375 52.734375 
z
M 14.453125 78.125 
Q 19.921875 72.65625 23.4375 67.1875 
L 17.578125 63.671875 
Q 14.84375 69.140625 9.375 73.828125 
Q 12.890625 76.171875 14.453125 78.125 
z
" id="SimHei-25968"/>
     </defs>
     <g transform="translate(184.763906 310.34325)scale(0.15 -0.15)">
      <use xlink:href="#SimHei-38544"/>
      <use x="100" xlink:href="#SimHei-23618"/>
      <use x="200" xlink:href="#SimHei-33410"/>
      <use x="300" xlink:href="#SimHei-28857"/>
      <use x="400" xlink:href="#SimHei-25968"/>
     </g>
    </g>
   </g>
   <g id="matplotlib.axis_2">
    <g id="ytick_1">
     <g id="line2d_6">
      <defs>
       <path d="M 0 0 
L 3.5 0 
" id="m7ba7ba3a98" style="stroke:#000000;stroke-width:0.8;"/>
      </defs>
      <g>
       <use style="stroke:#000000;stroke-width:0.8;" x="43.703906" xlink:href="#m7ba7ba3a98" y="278.46825"/>
      </g>
     </g>
     <g id="text_7">
      <!-- 91 -->
      <defs>
       <path d="M 12.5 1.171875 
Q 21.09375 15.625 26.5625 27.34375 
Q 16.796875 25.78125 10.34375 29.875 
Q 3.90625 33.984375 2.53125 41.015625 
Q 1.171875 48.046875 2.734375 53.703125 
Q 4.296875 59.375 7.609375 63.078125 
Q 10.9375 66.796875 15.625 68.359375 
Q 20.3125 69.921875 24.015625 69.921875 
Q 27.734375 69.921875 31.640625 68.359375 
Q 35.546875 66.796875 38.671875 63.671875 
Q 41.796875 60.546875 42.96875 57.21875 
Q 44.140625 53.90625 44.140625 48.625 
Q 44.140625 43.359375 40.234375 35.15625 
Q 36.328125 26.953125 21.09375 1.171875 
z
M 9.765625 50 
Q 10.9375 39.84375 14.640625 36.515625 
Q 18.359375 33.203125 22.65625 33.59375 
Q 26.953125 33.984375 29.484375 35.9375 
Q 32.03125 37.890625 34.375 42.578125 
Q 35.9375 48.4375 35.15625 52.53125 
Q 34.375 56.640625 31.046875 59.375 
Q 27.734375 62.109375 23.828125 62.109375 
Q 21.484375 62.5 17.765625 60.9375 
Q 14.0625 59.375 11.90625 54.6875 
Q 9.765625 50 10.9375 39.84375 
z
" id="SimHei-57"/>
      </defs>
      <g transform="translate(25.203906 283.6245)scale(0.15 -0.15)">
       <use xlink:href="#SimHei-57"/>
       <use x="50" xlink:href="#SimHei-49"/>
      </g>
     </g>
    </g>
    <g id="ytick_2">
     <g id="line2d_7">
      <g>
       <use style="stroke:#000000;stroke-width:0.8;" x="43.703906" xlink:href="#m7ba7ba3a98" y="245.20425"/>
      </g>
     </g>
     <g id="text_8">
      <!-- 92 -->
      <g transform="translate(25.203906 250.3605)scale(0.15 -0.15)">
       <use xlink:href="#SimHei-57"/>
       <use x="50" xlink:href="#SimHei-50"/>
      </g>
     </g>
    </g>
    <g id="ytick_3">
     <g id="line2d_8">
      <g>
       <use style="stroke:#000000;stroke-width:0.8;" x="43.703906" xlink:href="#m7ba7ba3a98" y="211.94025"/>
      </g>
     </g>
     <g id="text_9">
      <!-- 93 -->
      <defs>
       <path d="M 3.90625 19.140625 
L 10.9375 20.3125 
Q 12.5 15.234375 16.015625 11.90625 
Q 19.53125 8.59375 24.796875 8.78125 
Q 30.078125 8.984375 33.203125 13.078125 
Q 36.328125 17.1875 35.9375 22.453125 
Q 35.546875 27.734375 31.828125 30.65625 
Q 28.125 33.59375 19.921875 34.765625 
L 19.921875 39.84375 
Q 28.125 40.625 31.828125 44.140625 
Q 35.546875 47.65625 35.15625 53.3125 
Q 34.765625 58.984375 30.078125 61.515625 
Q 25.390625 64.0625 20.109375 62.109375 
Q 14.84375 60.15625 11.71875 51.171875 
L 4.6875 52.34375 
Q 7.03125 59.375 11.125 64.0625 
Q 15.234375 68.75 22.265625 69.53125 
Q 29.296875 70.3125 34.5625 67.765625 
Q 39.84375 65.234375 41.984375 59.953125 
Q 44.140625 54.6875 42.578125 48.4375 
Q 41.015625 42.1875 33.59375 37.5 
Q 39.0625 35.15625 41.984375 30.46875 
Q 44.921875 25.78125 43.9375 18.15625 
Q 42.96875 10.546875 37.109375 5.859375 
Q 31.25 1.171875 23.828125 1.359375 
Q 16.40625 1.5625 10.9375 6.046875 
Q 5.46875 10.546875 3.90625 19.140625 
z
" id="SimHei-51"/>
      </defs>
      <g transform="translate(25.203906 217.0965)scale(0.15 -0.15)">
       <use xlink:href="#SimHei-57"/>
       <use x="50" xlink:href="#SimHei-51"/>
      </g>
     </g>
    </g>
    <g id="ytick_4">
     <g id="line2d_9">
      <g>
       <use style="stroke:#000000;stroke-width:0.8;" x="43.703906" xlink:href="#m7ba7ba3a98" y="178.67625"/>
      </g>
     </g>
     <g id="text_10">
      <!-- 94 -->
      <g transform="translate(25.203906 183.8325)scale(0.15 -0.15)">
       <use xlink:href="#SimHei-57"/>
       <use x="50" xlink:href="#SimHei-52"/>
      </g>
     </g>
    </g>
    <g id="ytick_5">
     <g id="line2d_10">
      <g>
       <use style="stroke:#000000;stroke-width:0.8;" x="43.703906" xlink:href="#m7ba7ba3a98" y="145.41225"/>
      </g>
     </g>
     <g id="text_11">
      <!-- 95 -->
      <defs>
       <path d="M 8.59375 20.703125 
Q 11.328125 10.15625 17.96875 8.984375 
Q 24.609375 7.8125 28.703125 10.34375 
Q 32.8125 12.890625 34.5625 16.984375 
Q 36.328125 21.09375 36.125 26.171875 
Q 35.9375 31.25 33.390625 34.765625 
Q 30.859375 38.28125 26.953125 39.453125 
Q 23.046875 40.625 18.15625 39.453125 
Q 13.28125 38.28125 10.15625 33.984375 
L 3.515625 34.765625 
Q 4.296875 37.109375 10.9375 68.359375 
L 41.796875 68.359375 
L 41.796875 61.328125 
L 16.796875 61.328125 
Q 14.84375 50.78125 12.890625 44.53125 
Q 18.75 47.265625 23.828125 47.0625 
Q 28.90625 46.875 33.59375 44.71875 
Q 38.28125 42.578125 40.421875 38.859375 
Q 42.578125 35.15625 43.546875 31.4375 
Q 44.53125 27.734375 44.328125 23.4375 
Q 44.140625 19.140625 42.578125 14.640625 
Q 41.015625 10.15625 37.890625 7.21875 
Q 34.765625 4.296875 30.265625 2.53125 
Q 25.78125 0.78125 19.921875 1.171875 
Q 14.0625 1.5625 8.78125 5.46875 
Q 3.515625 9.375 1.5625 18.75 
z
" id="SimHei-53"/>
      </defs>
      <g transform="translate(25.203906 150.5685)scale(0.15 -0.15)">
       <use xlink:href="#SimHei-57"/>
       <use x="50" xlink:href="#SimHei-53"/>
      </g>
     </g>
    </g>
    <g id="ytick_6">
     <g id="line2d_11">
      <g>
       <use style="stroke:#000000;stroke-width:0.8;" x="43.703906" xlink:href="#m7ba7ba3a98" y="112.14825"/>
      </g>
     </g>
     <g id="text_12">
      <!-- 96 -->
      <g transform="translate(25.203906 117.3045)scale(0.15 -0.15)">
       <use xlink:href="#SimHei-57"/>
       <use x="50" xlink:href="#SimHei-54"/>
      </g>
     </g>
    </g>
    <g id="ytick_7">
     <g id="line2d_12">
      <g>
       <use style="stroke:#000000;stroke-width:0.8;" x="43.703906" xlink:href="#m7ba7ba3a98" y="78.88425"/>
      </g>
     </g>
     <g id="text_13">
      <!-- 97 -->
      <defs>
       <path d="M 13.28125 2.34375 
Q 20.3125 32.03125 37.890625 61.328125 
L 4.296875 61.328125 
L 4.296875 68.359375 
L 46.09375 68.359375 
L 46.09375 61.71875 
Q 27.734375 32.03125 21.875 2.34375 
L 13.28125 2.34375 
z
" id="SimHei-55"/>
      </defs>
      <g transform="translate(25.203906 84.0405)scale(0.15 -0.15)">
       <use xlink:href="#SimHei-57"/>
       <use x="50" xlink:href="#SimHei-55"/>
      </g>
     </g>
    </g>
    <g id="ytick_8">
     <g id="line2d_13">
      <g>
       <use style="stroke:#000000;stroke-width:0.8;" x="43.703906" xlink:href="#m7ba7ba3a98" y="45.62025"/>
      </g>
     </g>
     <g id="text_14">
      <!-- 98 -->
      <g transform="translate(25.203906 50.7765)scale(0.15 -0.15)">
       <use xlink:href="#SimHei-57"/>
       <use x="50" xlink:href="#SimHei-56"/>
      </g>
     </g>
    </g>
    <g id="ytick_9">
     <g id="line2d_14">
      <g>
       <use style="stroke:#000000;stroke-width:0.8;" x="43.703906" xlink:href="#m7ba7ba3a98" y="12.35625"/>
      </g>
     </g>
     <g id="text_15">
      <!-- 99 -->
      <g transform="translate(25.203906 17.5125)scale(0.15 -0.15)">
       <use xlink:href="#SimHei-57"/>
       <use x="50" xlink:href="#SimHei-57"/>
      </g>
     </g>
    </g>
    <g id="text_16">
     <!-- 正确率（%） -->
     <defs>
      <path d="M 75.390625 72.265625 
Q 82.8125 72.265625 88.671875 72.65625 
L 88.671875 64.84375 
Q 82.8125 65.234375 74.609375 65.234375 
L 55.859375 65.234375 
L 55.859375 40.625 
L 75.78125 40.625 
Q 82.03125 40.625 86.71875 41.015625 
L 86.71875 33.59375 
Q 82.03125 33.984375 75.78125 33.984375 
L 55.859375 33.984375 
L 55.859375 2.34375 
L 75.78125 2.34375 
Q 83.984375 2.34375 92.1875 2.734375 
L 92.1875 -5.078125 
Q 83.984375 -4.6875 77.734375 -4.6875 
L 18.359375 -4.6875 
Q 10.9375 -4.6875 5.859375 -5.078125 
L 5.859375 2.734375 
Q 10.9375 2.34375 18.359375 2.34375 
L 20.703125 2.34375 
L 20.703125 36.71875 
Q 20.703125 43.75 20.3125 48.828125 
L 29.296875 48.828125 
Q 28.90625 44.140625 28.90625 36.71875 
L 28.90625 2.34375 
L 48.046875 2.34375 
L 48.046875 65.234375 
L 25.390625 65.234375 
Q 17.96875 65.234375 12.5 64.84375 
L 12.5 72.65625 
Q 17.96875 72.265625 25.390625 72.265625 
z
" id="SimHei-27491"/>
      <path d="M 77.734375 -3.125 
Q 82.03125 -2.734375 83.78125 -1.953125 
Q 85.546875 -1.171875 85.546875 1.953125 
L 85.546875 15.234375 
L 72.265625 15.234375 
L 72.265625 -6.25 
L 65.625 -6.25 
L 65.625 15.234375 
L 54.6875 15.234375 
Q 54.296875 9.765625 51.953125 3.703125 
Q 49.609375 -2.34375 43.75 -9.375 
Q 41.015625 -5.46875 36.328125 -5.078125 
Q 41.40625 -0.78125 43.9375 4.09375 
Q 46.484375 8.984375 47.265625 15.625 
Q 48.046875 22.265625 48.234375 34.171875 
Q 48.4375 46.09375 48.046875 53.515625 
L 66.40625 53.515625 
Q 69.921875 59.765625 72.65625 66.015625 
L 56.640625 66.015625 
Q 51.953125 60.546875 44.53125 50.78125 
Q 41.40625 53.515625 37.890625 54.6875 
Q 44.921875 62.109375 49.609375 69.140625 
Q 54.296875 76.171875 56.640625 82.8125 
Q 60.9375 80.859375 65.625 79.6875 
Q 63.671875 78.515625 59.765625 71.484375 
L 83.59375 71.484375 
Q 76.5625 58.984375 74.21875 53.515625 
L 92.96875 53.515625 
Q 92.578125 46.484375 92.578125 38.28125 
L 92.578125 -0.78125 
Q 92.96875 -5.46875 90.234375 -7.21875 
Q 87.5 -8.984375 80.859375 -10.546875 
Q 80.46875 -6.640625 77.734375 -3.125 
z
M 3.125 30.859375 
Q 8.59375 35.9375 13.28125 44.328125 
Q 17.96875 52.734375 20.3125 66.015625 
Q 12.890625 66.015625 8.203125 65.625 
L 8.203125 72.65625 
Q 13.671875 72.265625 18.75 72.265625 
L 29.6875 72.265625 
Q 36.328125 72.265625 41.015625 72.65625 
L 41.015625 65.625 
Q 36.328125 66.015625 28.125 66.015625 
Q 25.78125 55.078125 21.875 45.703125 
L 39.453125 45.703125 
Q 39.0625 39.0625 39.0625 33.203125 
L 39.0625 16.796875 
Q 39.0625 10.15625 39.453125 1.953125 
L 32.421875 1.953125 
L 32.421875 9.375 
L 21.09375 9.375 
L 21.09375 -4.6875 
L 14.0625 -4.6875 
Q 14.453125 3.515625 14.453125 9.375 
L 14.453125 32.8125 
Q 12.5 29.6875 9.765625 25.390625 
Q 7.421875 28.515625 3.125 30.859375 
z
M 32.421875 15.234375 
L 32.421875 40.234375 
L 21.09375 40.234375 
L 21.09375 15.234375 
z
M 85.546875 36.71875 
L 85.546875 48.046875 
L 72.265625 48.046875 
L 72.265625 36.71875 
z
M 85.546875 20.703125 
L 85.546875 31.25 
L 72.265625 31.25 
L 72.265625 20.703125 
z
M 65.625 36.71875 
L 65.625 48.046875 
L 54.6875 48.046875 
L 54.6875 36.71875 
z
M 65.625 20.703125 
L 65.625 31.25 
L 54.6875 31.25 
L 54.6875 20.703125 
z
" id="SimHei-30830"/>
      <path d="M 51.953125 80.46875 
Q 53.515625 76.5625 55.46875 70.703125 
L 75 70.703125 
Q 82.03125 70.703125 90.625 71.09375 
L 90.625 64.453125 
Q 82.03125 65.234375 74.609375 65.234375 
L 43.75 65.234375 
Q 46.484375 63.28125 51.5625 60.9375 
Q 48.046875 58.59375 44.921875 55.265625 
Q 41.796875 51.953125 38.671875 48.828125 
L 51.171875 48.828125 
Q 55.859375 53.515625 58.984375 58.984375 
Q 62.5 56.25 66.796875 53.515625 
Q 61.71875 50.78125 56.25 44.921875 
Q 50.78125 39.0625 41.015625 31.25 
L 60.15625 32.8125 
Q 58.203125 35.15625 56.25 37.890625 
Q 58.59375 38.671875 62.5 41.40625 
Q 66.40625 36.71875 73.4375 26.5625 
Q 69.921875 25.390625 66.015625 22.65625 
Q 65.234375 25 62.890625 27.734375 
Q 57.8125 27.34375 53.515625 27.34375 
L 53.515625 16.40625 
L 80.46875 16.40625 
Q 88.671875 16.40625 95.3125 16.796875 
L 95.3125 10.15625 
Q 89.0625 10.546875 80.078125 10.546875 
L 53.515625 10.546875 
L 53.515625 2.734375 
Q 53.515625 -4.6875 53.90625 -9.765625 
L 45.3125 -9.765625 
Q 45.703125 -4.6875 45.703125 2.734375 
L 45.703125 10.546875 
L 20.703125 10.546875 
Q 12.890625 10.546875 5.078125 10.15625 
L 5.078125 16.796875 
Q 12.890625 16.40625 21.09375 16.40625 
L 45.703125 16.40625 
L 45.703125 26.5625 
Q 42.1875 26.171875 38.671875 25.578125 
Q 35.15625 25 31.640625 23.828125 
Q 30.46875 27.734375 28.90625 31.25 
Q 32.421875 31.640625 36.328125 34.375 
Q 40.234375 37.109375 46.484375 43.75 
Q 35.9375 42.578125 31.640625 41.015625 
Q 30.859375 44.921875 28.90625 49.609375 
Q 32.421875 49.609375 36.328125 54.484375 
Q 40.234375 59.375 42.96875 65.234375 
L 26.5625 65.234375 
Q 17.96875 65.234375 10.15625 64.453125 
L 10.15625 71.09375 
Q 17.96875 70.703125 24.21875 70.703125 
L 46.484375 70.703125 
Q 45.3125 75.390625 43.75 78.515625 
Q 47.265625 79.296875 51.953125 80.46875 
z
M 25.390625 40.234375 
Q 26.953125 37.5 28.515625 34.375 
Q 24.609375 32.03125 20.703125 29.09375 
Q 16.796875 26.171875 12.5 22.265625 
Q 9.765625 26.171875 7.421875 29.296875 
Q 12.5 31.640625 17.1875 34.5625 
Q 21.875 37.5 25.390625 40.234375 
z
M 75.78125 41.40625 
Q 80.078125 38.671875 83.390625 36.515625 
Q 86.71875 34.375 91.796875 30.46875 
Q 88.671875 28.125 85.9375 25 
Q 82.8125 27.734375 79.09375 30.859375 
Q 75.390625 33.984375 71.484375 36.328125 
Q 73.828125 38.671875 75.78125 41.40625 
z
M 89.453125 55.078125 
Q 86.71875 53.90625 82.8125 50.96875 
Q 78.90625 48.046875 75 44.140625 
Q 72.265625 47.65625 69.921875 49.609375 
Q 73.4375 51.953125 76.171875 54.484375 
Q 78.90625 57.03125 82.8125 61.328125 
Q 86.328125 57.8125 89.453125 55.078125 
z
M 16.40625 60.15625 
Q 22.265625 56.25 27.734375 51.171875 
Q 24.609375 48.4375 22.265625 45.703125 
Q 16.796875 51.5625 10.546875 55.078125 
Q 13.671875 57.8125 16.40625 60.15625 
z
" id="SimHei-29575"/>
      <path d="M 84.765625 79.6875 
L 89.0625 74.609375 
Q 66.796875 58.203125 67.578125 36.71875 
Q 67.96875 16.015625 88.671875 0.78125 
L 84.375 -4.296875 
Q 60.546875 12.890625 61.328125 39.0625 
Q 61.328125 60.546875 84.765625 79.6875 
z
" id="SimHei-65288"/>
      <path d="M 21.875 51.953125 
Q 21.875 40.625 18.546875 37.5 
Q 15.234375 34.375 12.109375 34.375 
Q 8.984375 34.375 5.65625 37.5 
Q 2.34375 40.625 2.34375 51.953125 
Q 2.34375 63.28125 5.65625 66.40625 
Q 8.984375 69.53125 12.109375 69.53125 
Q 15.234375 69.53125 18.546875 66.40625 
Q 21.875 63.28125 21.875 51.953125 
z
M 41.015625 68.359375 
L 10.9375 1.171875 
L 7.8125 2.34375 
L 37.890625 69.53125 
z
M 46.484375 18.75 
Q 46.484375 7.421875 43.15625 4.296875 
Q 39.84375 1.171875 36.71875 1.171875 
Q 33.59375 1.171875 30.265625 4.296875 
Q 26.953125 7.421875 26.953125 18.75 
Q 26.953125 30.078125 30.265625 33.203125 
Q 33.59375 36.328125 36.71875 36.328125 
Q 39.84375 36.328125 43.15625 33.203125 
Q 46.484375 30.078125 46.484375 18.75 
z
M 15.625 51.953125 
Q 15.625 58.984375 14.84375 61.328125 
Q 14.0625 63.671875 12.109375 63.671875 
Q 10.15625 63.671875 9.375 61.328125 
Q 8.59375 58.984375 8.59375 51.953125 
Q 8.59375 44.921875 9.375 42.578125 
Q 10.15625 40.234375 12.109375 40.234375 
Q 14.0625 40.234375 14.84375 42.578125 
Q 15.625 44.921875 15.625 51.953125 
z
M 40.234375 18.75 
Q 40.234375 25.78125 39.453125 28.125 
Q 38.671875 30.46875 36.71875 30.46875 
Q 34.765625 30.46875 33.984375 28.125 
Q 33.203125 25.78125 33.203125 18.75 
Q 33.203125 11.71875 33.984375 9.375 
Q 34.765625 7.03125 36.71875 7.03125 
Q 38.671875 7.03125 39.453125 9.375 
Q 40.234375 11.71875 40.234375 18.75 
z
" id="SimHei-37"/>
      <path d="M 15.625 79.6875 
Q 39.0625 60.546875 39.0625 39.0625 
Q 39.84375 12.890625 16.015625 -4.296875 
L 11.71875 0.78125 
Q 32.421875 16.015625 32.8125 36.71875 
Q 33.59375 58.203125 11.328125 74.609375 
L 15.625 79.6875 
z
" id="SimHei-65289"/>
     </defs>
     <g transform="translate(19.328906 186.66225)rotate(-90)scale(0.15 -0.15)">
      <use xlink:href="#SimHei-27491"/>
      <use x="100" xlink:href="#SimHei-30830"/>
      <use x="200" xlink:href="#SimHei-29575"/>
      <use x="300" xlink:href="#SimHei-65288"/>
      <use x="400" xlink:href="#SimHei-37"/>
      <use x="450" xlink:href="#SimHei-65289"/>
     </g>
    </g>
   </g>
   <g id="line2d_15">
    <path clip-path="url(#p41c13ba0b0)" d="M 59.936634 240.616054 
L 141.10027 119.030433 
L 222.263906 138.52998 
L 303.427543 137.382994 
L 384.591179 109.854152 
" style="fill:none;stroke:#000000;stroke-linecap:square;stroke-opacity:0.5;stroke-width:1.5;"/>
    <defs>
     <path d="M 0 4.5 
C 1.193414 4.5 2.338109 4.025852 3.181981 3.181981 
C 4.025852 2.338109 4.5 1.193414 4.5 0 
C 4.5 -1.193414 4.025852 -2.338109 3.181981 -3.181981 
C 2.338109 -4.025852 1.193414 -4.5 0 -4.5 
C -1.193414 -4.5 -2.338109 -4.025852 -3.181981 -3.181981 
C -4.025852 -2.338109 -4.5 -1.193414 -4.5 0 
C -4.5 1.193414 -4.025852 2.338109 -3.181981 3.181981 
C -2.338109 4.025852 -1.193414 4.5 0 4.5 
z
" id="md744becdf8" style="stroke:#000000;stroke-opacity:0.5;"/>
    </defs>
    <g clip-path="url(#p41c13ba0b0)">
     <use style="fill-opacity:0.5;stroke:#000000;stroke-opacity:0.5;" x="59.936634" xlink:href="#md744becdf8" y="240.616054"/>
     <use style="fill-opacity:0.5;stroke:#000000;stroke-opacity:0.5;" x="141.10027" xlink:href="#md744becdf8" y="119.030433"/>
     <use style="fill-opacity:0.5;stroke:#000000;stroke-opacity:0.5;" x="222.263906" xlink:href="#md744becdf8" y="138.52998"/>
     <use style="fill-opacity:0.5;stroke:#000000;stroke-opacity:0.5;" x="303.427543" xlink:href="#md744becdf8" y="137.382994"/>
     <use style="fill-opacity:0.5;stroke:#000000;stroke-opacity:0.5;" x="384.591179" xlink:href="#md744becdf8" y="109.854152"/>
    </g>
   </g>
   <g id="line2d_16">
    <path clip-path="url(#p41c13ba0b0)" d="M 59.936634 260.912246 
L 141.10027 82.464693 
L 222.263906 115.959843 
L 303.427543 119.42479 
L 384.591179 59.364781 
" style="fill:none;stroke:#000000;stroke-linecap:square;stroke-opacity:0.5;stroke-width:1.5;"/>
    <defs>
     <path d="M -4.5 4.5 
L 4.5 4.5 
L 4.5 -4.5 
L -4.5 -4.5 
z
" id="m132872eada" style="stroke:#000000;stroke-linejoin:miter;stroke-opacity:0.5;"/>
    </defs>
    <g clip-path="url(#p41c13ba0b0)">
     <use style="fill-opacity:0.5;stroke:#000000;stroke-linejoin:miter;stroke-opacity:0.5;" x="59.936634" xlink:href="#m132872eada" y="260.912246"/>
     <use style="fill-opacity:0.5;stroke:#000000;stroke-linejoin:miter;stroke-opacity:0.5;" x="141.10027" xlink:href="#m132872eada" y="82.464693"/>
     <use style="fill-opacity:0.5;stroke:#000000;stroke-linejoin:miter;stroke-opacity:0.5;" x="222.263906" xlink:href="#m132872eada" y="115.959843"/>
     <use style="fill-opacity:0.5;stroke:#000000;stroke-linejoin:miter;stroke-opacity:0.5;" x="303.427543" xlink:href="#m132872eada" y="119.42479"/>
     <use style="fill-opacity:0.5;stroke:#000000;stroke-linejoin:miter;stroke-opacity:0.5;" x="384.591179" xlink:href="#m132872eada" y="59.364781"/>
    </g>
   </g>
   <g id="patch_3">
    <path d="M 43.703906 278.46825 
L 43.703906 12.35625 
" style="fill:none;stroke:#000000;stroke-linecap:square;stroke-linejoin:miter;stroke-width:0.8;"/>
   </g>
   <g id="patch_4">
    <path d="M 400.823906 278.46825 
L 400.823906 12.35625 
" style="fill:none;stroke:#000000;stroke-linecap:square;stroke-linejoin:miter;stroke-width:0.8;"/>
   </g>
   <g id="patch_5">
    <path d="M 43.703906 278.46825 
L 400.823906 278.46825 
" style="fill:none;stroke:#000000;stroke-linecap:square;stroke-linejoin:miter;stroke-width:0.8;"/>
   </g>
   <g id="patch_6">
    <path d="M 43.703906 12.35625 
L 400.823906 12.35625 
" style="fill:none;stroke:#000000;stroke-linecap:square;stroke-linejoin:miter;stroke-width:0.8;"/>
   </g>
   <g id="legend_1">
    <g id="patch_7">
     <path d="M 53.503906 63.751563 
L 182.303906 63.751563 
Q 185.103906 63.751563 185.103906 60.951563 
L 185.103906 22.15625 
Q 185.103906 19.35625 182.303906 19.35625 
L 53.503906 19.35625 
Q 50.703906 19.35625 50.703906 22.15625 
L 50.703906 60.951563 
Q 50.703906 63.751563 53.503906 63.751563 
z
" style="fill:#ffffff;opacity:0.8;"/>
    </g>
    <g id="line2d_17">
     <path d="M 56.303906 31.376563 
L 84.303906 31.376563 
" style="fill:none;stroke:#000000;stroke-linecap:square;stroke-opacity:0.5;stroke-width:1.5;"/>
    </g>
    <g id="line2d_18">
     <g>
      <use style="fill-opacity:0.5;stroke:#000000;stroke-opacity:0.5;" x="70.303906" xlink:href="#md744becdf8" y="31.376563"/>
     </g>
    </g>
    <g id="text_17">
     <!-- 训练集正确率 -->
     <defs>
      <path d="M 25.78125 51.5625 
Q 25.390625 42.578125 25.390625 34.765625 
L 25.390625 10.546875 
Q 30.46875 17.578125 32.03125 19.921875 
Q 33.984375 17.578125 36.71875 14.0625 
Q 31.640625 7.8125 28.125 3.3125 
Q 24.609375 -1.171875 20.703125 -6.640625 
Q 17.96875 -3.125 14.84375 -0.78125 
Q 17.96875 3.515625 17.96875 9.765625 
L 17.96875 44.921875 
L 15.234375 44.921875 
Q 9.375 44.921875 4.6875 44.53125 
L 4.6875 51.953125 
Q 9.375 51.5625 15.234375 51.5625 
z
M 53.515625 71.875 
Q 52.734375 67.96875 52.921875 52.53125 
Q 53.125 37.109375 52.140625 29.484375 
Q 51.171875 21.875 48.234375 13.078125 
Q 45.3125 4.296875 38.28125 -5.859375 
Q 34.765625 -3.125 30.859375 -1.953125 
Q 39.84375 7.8125 43.15625 21.28125 
Q 46.484375 34.765625 46.09375 52.140625 
Q 45.703125 69.53125 45.3125 73.046875 
Q 49.21875 72.265625 53.515625 71.875 
z
M 91.796875 73.4375 
Q 91.40625 70.3125 91.40625 62.109375 
L 91.40625 9.765625 
Q 91.40625 1.953125 91.796875 -6.25 
L 84.375 -6.25 
Q 84.765625 1.953125 84.765625 9.375 
L 84.765625 62.109375 
Q 84.765625 70.3125 84.375 73.4375 
L 91.796875 73.4375 
z
M 71.875 2.734375 
L 64.453125 2.734375 
Q 64.84375 11.328125 64.84375 17.96875 
L 64.84375 56.25 
Q 64.84375 63.28125 64.453125 67.96875 
L 71.875 67.96875 
z
M 15.625 80.46875 
Q 25.78125 71.875 32.8125 64.0625 
Q 29.296875 61.328125 27.34375 58.59375 
Q 16.40625 71.09375 10.9375 75 
Q 13.28125 77.34375 15.625 80.46875 
z
" id="SimHei-35757"/>
      <path d="M 51.5625 59.765625 
Q 46.09375 59.765625 37.5 59.375 
L 37.5 66.40625 
Q 46.09375 66.015625 51.953125 66.015625 
L 56.640625 66.015625 
Q 60.546875 77.34375 60.9375 80.859375 
Q 65.625 78.515625 69.53125 76.953125 
Q 67.96875 75.390625 66.59375 72.0625 
Q 65.234375 68.75 64.0625 66.015625 
L 78.515625 66.015625 
Q 84.765625 66.015625 92.1875 66.40625 
L 92.1875 59.375 
Q 86.71875 59.765625 78.515625 59.765625 
L 62.109375 59.765625 
Q 60.15625 55.078125 57.8125 49.21875 
L 73.046875 49.21875 
Q 72.65625 44.921875 72.65625 38.671875 
L 72.65625 30.859375 
L 77.734375 30.859375 
Q 83.59375 30.859375 90.625 31.25 
L 90.625 24.21875 
Q 83.59375 24.609375 77.734375 24.609375 
L 72.65625 24.609375 
L 72.65625 1.953125 
Q 72.65625 -4.6875 69.71875 -6.640625 
Q 66.796875 -8.59375 57.03125 -9.765625 
Q 56.640625 -5.859375 53.90625 -1.5625 
Q 63.671875 -1.953125 64.640625 -0.390625 
Q 65.625 1.171875 65.625 5.078125 
L 65.625 24.609375 
L 53.515625 24.609375 
Q 50.78125 24.609375 48.4375 24.40625 
Q 46.09375 24.21875 42.96875 23.046875 
Q 41.40625 26.953125 39.84375 30.46875 
Q 43.75 31.640625 48.828125 43.359375 
Q 46.09375 43.359375 38.28125 42.96875 
L 38.28125 49.609375 
Q 47.265625 49.21875 50.78125 49.21875 
Q 53.125 55.078125 54.6875 59.765625 
z
M 25.78125 46.09375 
Q 29.296875 51.5625 32.8125 60.9375 
Q 36.328125 58.203125 40.234375 56.25 
Q 36.328125 51.171875 31.640625 42.96875 
Q 26.953125 34.765625 16.796875 21.09375 
Q 20.3125 21.875 37.5 24.609375 
Q 36.71875 20.3125 37.109375 17.96875 
Q 28.515625 17.1875 10.15625 12.890625 
Q 8.203125 16.796875 6.25 19.921875 
Q 9.765625 21.875 13.859375 27.140625 
Q 17.96875 32.421875 22.65625 40.234375 
Q 20.3125 40.625 15.8125 40.03125 
Q 11.328125 39.453125 7.03125 38.28125 
Q 5.46875 41.796875 3.90625 45.703125 
Q 7.8125 48.046875 12.6875 58.203125 
Q 17.578125 68.359375 20.703125 78.125 
Q 25 75.390625 28.90625 74.21875 
Q 25 68.359375 21.671875 61.90625 
Q 18.359375 55.46875 12.5 45.703125 
Q 21.484375 45.703125 25.78125 46.09375 
z
M 37.890625 10.9375 
Q 37.5 6.640625 37.890625 3.90625 
Q 31.25 2.34375 22.84375 -0.390625 
Q 14.453125 -3.125 7.421875 -6.640625 
Q 6.25 -2.34375 4.6875 1.953125 
Q 14.84375 4.296875 18.546875 5.265625 
Q 22.265625 6.25 37.890625 10.9375 
z
M 58.203125 13.671875 
Q 57.03125 12.5 51.359375 6.25 
Q 45.703125 0 38.671875 -7.421875 
Q 35.9375 -3.90625 33.59375 -1.953125 
Q 37.890625 1.5625 42.96875 7.21875 
Q 48.046875 12.890625 51.953125 19.140625 
Q 54.296875 16.40625 58.203125 13.671875 
z
M 82.421875 19.140625 
Q 92.578125 5.859375 96.875 -1.5625 
Q 92.96875 -3.125 89.84375 -5.859375 
Q 85.546875 2.734375 76.5625 14.84375 
Q 79.296875 16.40625 82.421875 19.140625 
z
M 65.625 30.859375 
L 65.625 43.359375 
L 55.859375 43.359375 
Q 51.953125 35.15625 49.609375 30.859375 
z
" id="SimHei-32451"/>
      <path d="M 35.546875 76.953125 
Q 33.203125 75 31.640625 72.84375 
Q 30.078125 70.703125 28.90625 67.96875 
L 76.953125 67.96875 
Q 82.8125 67.96875 89.84375 68.359375 
L 89.84375 62.109375 
L 57.03125 62.109375 
L 57.03125 55.859375 
L 72.265625 55.859375 
Q 76.953125 55.859375 83.203125 56.25 
L 83.203125 49.609375 
Q 76.953125 50 72.265625 50 
L 57.03125 50 
L 57.03125 43.75 
L 73.046875 43.75 
Q 78.125 43.75 84.765625 44.140625 
L 84.765625 37.5 
Q 78.125 37.890625 73.046875 37.890625 
L 57.03125 37.890625 
L 57.03125 32.421875 
L 76.171875 32.421875 
Q 82.421875 32.421875 88.671875 32.8125 
L 88.671875 26.171875 
Q 82.8125 26.5625 76.5625 26.5625 
L 25.78125 26.5625 
L 25.78125 23.4375 
L 17.96875 23.4375 
Q 18.75 30.46875 18.75 36.328125 
L 18.75 54.296875 
Q 16.40625 50.78125 14.640625 48.828125 
Q 12.890625 46.875 10.546875 44.140625 
Q 7.8125 46.875 4.6875 48.828125 
Q 7.421875 51.953125 13.671875 59.765625 
Q 19.921875 67.578125 22.84375 72.65625 
Q 25.78125 77.734375 26.953125 81.640625 
Q 30.46875 79.6875 35.546875 76.953125 
z
M 46.484375 18.75 
Q 46.484375 20.3125 46.09375 25.390625 
L 54.296875 25.390625 
Q 53.90625 19.921875 53.90625 18.75 
L 78.90625 18.75 
Q 85.9375 18.75 92.578125 19.140625 
L 92.578125 12.890625 
L 64.84375 12.890625 
Q 70.3125 8.203125 76.953125 5.65625 
Q 83.59375 3.125 95.3125 0.390625 
Q 91.796875 -3.515625 90.234375 -7.421875 
Q 82.421875 -4.6875 77.53125 -2.53125 
Q 72.65625 -0.390625 68.546875 2.140625 
Q 64.453125 4.6875 61.71875 7.21875 
Q 58.984375 9.765625 55.859375 12.890625 
L 53.90625 12.890625 
L 53.90625 3.90625 
Q 53.90625 -4.296875 54.6875 -10.15625 
L 46.09375 -10.15625 
Q 46.484375 -4.6875 46.484375 3.90625 
L 46.484375 12.890625 
L 44.921875 12.890625 
Q 42.1875 8.984375 38.671875 5.859375 
Q 35.15625 2.734375 31.046875 0.1875 
Q 26.953125 -2.34375 22.265625 -4.6875 
Q 17.578125 -7.03125 10.9375 -8.984375 
Q 9.375 -5.078125 6.25 -1.171875 
Q 14.453125 0.78125 23.046875 4.09375 
Q 31.640625 7.421875 35.9375 12.890625 
L 7.8125 12.890625 
L 7.8125 19.140625 
Q 12.5 18.75 21.875 18.75 
z
M 49.21875 43.75 
L 49.21875 50 
L 25.78125 50 
L 25.78125 43.75 
z
M 49.21875 55.859375 
L 49.21875 62.109375 
L 25.78125 62.109375 
L 25.78125 55.859375 
z
M 49.21875 32.421875 
L 49.21875 37.890625 
L 25.78125 37.890625 
L 25.78125 32.421875 
z
M 53.90625 82.03125 
Q 55.859375 80.46875 58 78.125 
Q 60.15625 75.78125 62.5 72.65625 
Q 60.15625 70.703125 55.859375 68.359375 
Q 53.515625 71.484375 51.953125 73.4375 
Q 50.390625 75.390625 48.046875 77.34375 
Q 51.171875 79.296875 53.90625 82.03125 
z
" id="SimHei-38598"/>
     </defs>
     <g transform="translate(95.503906 36.276563)scale(0.14 -0.14)">
      <use xlink:href="#SimHei-35757"/>
      <use x="100" xlink:href="#SimHei-32451"/>
      <use x="200" xlink:href="#SimHei-38598"/>
      <use x="300" xlink:href="#SimHei-27491"/>
      <use x="400" xlink:href="#SimHei-30830"/>
      <use x="500" xlink:href="#SimHei-29575"/>
     </g>
    </g>
    <g id="line2d_19">
     <path d="M 56.303906 51.501563 
L 84.303906 51.501563 
" style="fill:none;stroke:#000000;stroke-linecap:square;stroke-opacity:0.5;stroke-width:1.5;"/>
    </g>
    <g id="line2d_20">
     <g>
      <use style="fill-opacity:0.5;stroke:#000000;stroke-linejoin:miter;stroke-opacity:0.5;" x="70.303906" xlink:href="#m132872eada" y="51.501563"/>
     </g>
    </g>
    <g id="text_18">
     <!-- 测试集正确率 -->
     <defs>
      <path d="M 62.890625 73.828125 
Q 62.5 69.921875 62.5 62.5 
L 62.5 34.765625 
Q 62.5 27.734375 62.890625 21.09375 
L 55.46875 21.09375 
L 55.46875 67.578125 
L 36.71875 67.578125 
L 36.71875 20.703125 
L 29.6875 20.703125 
Q 30.078125 27.734375 30.078125 34.765625 
L 30.078125 62.5 
Q 30.078125 65.625 29.6875 73.828125 
L 62.890625 73.828125 
z
M 92.1875 79.296875 
Q 91.796875 75 91.796875 68.359375 
L 91.796875 0 
Q 91.796875 -5.078125 88.28125 -6.640625 
Q 84.765625 -8.203125 77.734375 -9.375 
Q 76.953125 -5.078125 74.609375 -0.78125 
Q 80.078125 -0.78125 82.21875 -0.390625 
Q 84.375 0 84.375 3.90625 
L 84.375 68.359375 
Q 84.375 74.609375 83.984375 79.296875 
L 92.1875 79.296875 
z
M 51.171875 58.203125 
Q 50.390625 53.125 50 36.328125 
Q 49.609375 19.53125 44.328125 8.59375 
Q 39.0625 -2.34375 32.421875 -9.375 
Q 28.90625 -6.25 25 -5.078125 
Q 34.375 3.90625 38.671875 15.03125 
Q 42.96875 26.171875 43.15625 38.671875 
Q 43.359375 51.171875 42.578125 59.375 
Q 46.875 58.59375 51.171875 58.203125 
z
M 77.34375 66.796875 
Q 76.953125 62.5 76.953125 55.859375 
L 76.953125 28.515625 
Q 76.953125 20.3125 77.34375 13.28125 
L 69.53125 13.28125 
Q 69.921875 17.96875 69.921875 28.515625 
L 69.921875 55.859375 
Q 69.921875 62.5 69.53125 66.796875 
L 77.34375 66.796875 
z
M 26.5625 26.171875 
Q 21.484375 16.796875 17.375 7.609375 
Q 13.28125 -1.5625 11.328125 -6.25 
Q 7.8125 -3.125 3.125 -0.390625 
Q 7.421875 4.6875 11.90625 13.28125 
Q 16.40625 21.875 19.53125 31.25 
Q 23.046875 28.515625 26.5625 26.171875 
z
M 53.125 16.40625 
Q 59.375 10.15625 67.1875 -1.953125 
Q 64.0625 -3.515625 60.546875 -7.03125 
Q 54.296875 4.296875 47.265625 11.71875 
Q 50.390625 13.671875 53.125 16.40625 
z
M 9.375 55.078125 
Q 17.578125 48.828125 23.4375 43.359375 
Q 20.3125 40.234375 17.96875 37.109375 
Q 12.890625 43.359375 4.6875 49.21875 
Q 7.03125 51.5625 9.375 55.078125 
z
M 21.09375 62.5 
Q 14.84375 68.359375 7.421875 73.046875 
Q 9.765625 75.78125 12.109375 78.90625 
Q 20.3125 73.4375 26.171875 68.359375 
Q 23.4375 66.40625 21.09375 62.5 
z
" id="SimHei-27979"/>
      <path d="M 61.71875 59.765625 
Q 61.328125 67.578125 61.328125 71.09375 
Q 61.328125 75 60.9375 81.640625 
Q 65.625 80.46875 69.53125 80.078125 
Q 69.140625 75.390625 69.140625 71.875 
L 69.140625 59.765625 
L 80.46875 59.765625 
Q 85.9375 59.765625 91.796875 60.15625 
L 91.796875 53.125 
Q 86.328125 53.515625 80.078125 53.515625 
L 69.53125 53.515625 
Q 70.3125 42.96875 71.671875 34.5625 
Q 73.046875 26.171875 75.578125 17.375 
Q 78.125 8.59375 81.4375 3.515625 
Q 84.765625 -1.5625 85.9375 3.125 
Q 87.109375 7.8125 87.5 14.0625 
Q 90.625 9.765625 95.3125 8.203125 
Q 93.359375 -4.296875 89.84375 -7.609375 
Q 86.328125 -10.9375 82.03125 -8.390625 
Q 77.734375 -5.859375 74.015625 0.96875 
Q 70.3125 7.8125 67.765625 16.796875 
Q 65.234375 25.78125 64.0625 35.34375 
Q 62.890625 44.921875 62.109375 53.515625 
L 43.75 53.515625 
Q 35.9375 53.515625 29.296875 53.125 
L 29.296875 60.15625 
Q 35.546875 59.765625 43.359375 59.765625 
z
M 23.4375 49.609375 
Q 23.046875 41.796875 23.046875 33.984375 
L 23.046875 9.765625 
Q 28.515625 14.84375 33.203125 19.140625 
Q 34.765625 15.625 37.109375 12.5 
Q 29.6875 6.640625 17.578125 -5.46875 
Q 15.625 -1.953125 12.890625 0.78125 
Q 16.015625 2.734375 16.015625 8.203125 
L 16.015625 42.578125 
Q 9.765625 42.578125 4.6875 42.1875 
L 4.6875 50 
Q 9.765625 49.609375 12.890625 49.609375 
z
M 58.984375 33.984375 
Q 54.6875 34.375 50.78125 34.375 
L 50.78125 8.984375 
Q 55.859375 10.546875 60.9375 12.5 
Q 60.9375 8.203125 61.71875 5.078125 
Q 55.859375 3.90625 49.21875 1.953125 
Q 42.578125 0 35.546875 -2.734375 
Q 34.375 1.5625 31.640625 4.6875 
Q 37.890625 5.46875 43.75 7.421875 
L 43.75 34.375 
Q 39.453125 34.375 34.765625 33.984375 
L 34.765625 41.40625 
Q 40.625 41.015625 46.875 41.015625 
Q 53.515625 41.015625 58.984375 41.40625 
z
M 14.453125 77.734375 
Q 19.921875 72.65625 26.5625 64.0625 
Q 23.828125 61.328125 20.703125 58.984375 
Q 18.359375 63.28125 8.984375 72.65625 
Q 12.109375 75.390625 14.453125 77.734375 
z
M 80.46875 80.46875 
Q 83.203125 78.125 91.40625 68.359375 
Q 87.109375 65.625 84.765625 63.28125 
Q 80.078125 70.703125 74.609375 76.171875 
Q 76.953125 77.734375 80.46875 80.46875 
z
" id="SimHei-35797"/>
     </defs>
     <g transform="translate(95.503906 56.401563)scale(0.14 -0.14)">
      <use xlink:href="#SimHei-27979"/>
      <use x="100" xlink:href="#SimHei-35797"/>
      <use x="200" xlink:href="#SimHei-38598"/>
      <use x="300" xlink:href="#SimHei-27491"/>
      <use x="400" xlink:href="#SimHei-30830"/>
      <use x="500" xlink:href="#SimHei-29575"/>
     </g>
    </g>
   </g>
  </g>
  <g id="axes_2">
   <g id="matplotlib.axis_3">
    <g id="ytick_10">
     <g id="line2d_21">
      <defs>
       <path d="M 0 0 
L -3.5 0 
" id="me6569c0723" style="stroke:#000000;stroke-width:0.8;"/>
      </defs>
      <g>
       <use style="stroke:#000000;stroke-width:0.8;" x="400.823906" xlink:href="#me6569c0723" y="278.46825"/>
      </g>
     </g>
     <g id="text_19">
      <!-- 46 -->
      <g transform="translate(404.323906 283.6245)scale(0.15 -0.15)">
       <use xlink:href="#SimHei-52"/>
       <use x="50" xlink:href="#SimHei-54"/>
      </g>
     </g>
    </g>
    <g id="ytick_11">
     <g id="line2d_22">
      <g>
       <use style="stroke:#000000;stroke-width:0.8;" x="400.823906" xlink:href="#me6569c0723" y="240.45225"/>
      </g>
     </g>
     <g id="text_20">
      <!-- 47 -->
      <g transform="translate(404.323906 245.6085)scale(0.15 -0.15)">
       <use xlink:href="#SimHei-52"/>
       <use x="50" xlink:href="#SimHei-55"/>
      </g>
     </g>
    </g>
    <g id="ytick_12">
     <g id="line2d_23">
      <g>
       <use style="stroke:#000000;stroke-width:0.8;" x="400.823906" xlink:href="#me6569c0723" y="202.43625"/>
      </g>
     </g>
     <g id="text_21">
      <!-- 48 -->
      <g transform="translate(404.323906 207.5925)scale(0.15 -0.15)">
       <use xlink:href="#SimHei-52"/>
       <use x="50" xlink:href="#SimHei-56"/>
      </g>
     </g>
    </g>
    <g id="ytick_13">
     <g id="line2d_24">
      <g>
       <use style="stroke:#000000;stroke-width:0.8;" x="400.823906" xlink:href="#me6569c0723" y="164.42025"/>
      </g>
     </g>
     <g id="text_22">
      <!-- 49 -->
      <g transform="translate(404.323906 169.5765)scale(0.15 -0.15)">
       <use xlink:href="#SimHei-52"/>
       <use x="50" xlink:href="#SimHei-57"/>
      </g>
     </g>
    </g>
    <g id="ytick_14">
     <g id="line2d_25">
      <g>
       <use style="stroke:#000000;stroke-width:0.8;" x="400.823906" xlink:href="#me6569c0723" y="126.40425"/>
      </g>
     </g>
     <g id="text_23">
      <!-- 50 -->
      <g transform="translate(404.323906 131.5605)scale(0.15 -0.15)">
       <use xlink:href="#SimHei-53"/>
       <use x="50" xlink:href="#SimHei-48"/>
      </g>
     </g>
    </g>
    <g id="ytick_15">
     <g id="line2d_26">
      <g>
       <use style="stroke:#000000;stroke-width:0.8;" x="400.823906" xlink:href="#me6569c0723" y="88.38825"/>
      </g>
     </g>
     <g id="text_24">
      <!-- 51 -->
      <g transform="translate(404.323906 93.5445)scale(0.15 -0.15)">
       <use xlink:href="#SimHei-53"/>
       <use x="50" xlink:href="#SimHei-49"/>
      </g>
     </g>
    </g>
    <g id="ytick_16">
     <g id="line2d_27">
      <g>
       <use style="stroke:#000000;stroke-width:0.8;" x="400.823906" xlink:href="#me6569c0723" y="50.37225"/>
      </g>
     </g>
     <g id="text_25">
      <!-- 52 -->
      <g transform="translate(404.323906 55.5285)scale(0.15 -0.15)">
       <use xlink:href="#SimHei-53"/>
       <use x="50" xlink:href="#SimHei-50"/>
      </g>
     </g>
    </g>
    <g id="ytick_17">
     <g id="line2d_28">
      <g>
       <use style="stroke:#000000;stroke-width:0.8;" x="400.823906" xlink:href="#me6569c0723" y="12.35625"/>
      </g>
     </g>
     <g id="text_26">
      <!-- 53 -->
      <g transform="translate(404.323906 17.5125)scale(0.15 -0.15)">
       <use xlink:href="#SimHei-53"/>
       <use x="50" xlink:href="#SimHei-51"/>
      </g>
     </g>
    </g>
    <g id="text_27">
     <!-- 运行时间(s) -->
     <defs>
      <path d="M 78.90625 16.796875 
Q 58.59375 14.453125 51.171875 13.46875 
Q 43.75 12.5 41.015625 10.9375 
L 37.109375 19.140625 
Q 41.015625 20.703125 45.3125 27.734375 
Q 49.609375 34.765625 51.953125 45.703125 
Q 38.671875 45.703125 31.640625 45.3125 
L 31.640625 52.734375 
Q 39.0625 52.34375 61.71875 52.34375 
Q 84.375 52.34375 91.015625 52.734375 
L 91.015625 45.3125 
Q 84.375 45.703125 60.546875 45.703125 
Q 59.375 41.40625 56.046875 34.375 
Q 52.734375 27.34375 48.046875 19.921875 
Q 62.5 21.09375 75.78125 22.265625 
Q 73.046875 27.34375 67.96875 33.59375 
Q 71.09375 35.15625 73.828125 37.890625 
Q 81.25 28.515625 89.84375 14.453125 
Q 86.328125 12.5 82.8125 10.15625 
Q 80.859375 13.671875 78.90625 16.796875 
z
M 5.078125 0 
Q 17.1875 7.8125 21.09375 9.375 
L 21.09375 40.625 
Q 14.0625 40.625 7.421875 40.234375 
L 7.421875 47.65625 
Q 14.84375 47.265625 21.875 47.265625 
L 28.515625 47.265625 
Q 28.125 39.84375 28.125 35.546875 
L 28.125 10.9375 
Q 36.328125 0.78125 59.171875 0.578125 
Q 82.03125 0.390625 94.53125 2.34375 
Q 91.796875 -2.734375 91.015625 -7.03125 
L 65.625 -7.03125 
Q 55.46875 -7.03125 48.625 -6.046875 
Q 41.796875 -5.078125 37.109375 -3.3125 
Q 32.421875 -1.5625 28.515625 1.75 
Q 24.609375 5.078125 19.328125 0.390625 
Q 14.0625 -4.296875 11.328125 -7.421875 
Q 8.59375 -4.296875 5.078125 0 
z
M 84.375 66.796875 
Q 76.953125 67.1875 62.109375 67.1875 
Q 47.65625 67.1875 39.453125 66.796875 
L 39.453125 74.21875 
Q 46.484375 73.828125 61.71875 73.828125 
Q 76.953125 73.828125 84.375 74.21875 
z
M 23.046875 58.984375 
Q 18.359375 66.796875 11.328125 73.828125 
L 16.796875 78.515625 
Q 26.953125 67.578125 29.296875 63.671875 
z
" id="SimHei-36816"/>
      <path d="M 82.8125 48.4375 
Q 90.234375 48.4375 96.484375 48.828125 
L 96.484375 41.015625 
Q 90.234375 41.40625 83.203125 41.40625 
L 77.734375 41.40625 
L 77.734375 -1.171875 
Q 78.125 -5.859375 74.796875 -7.609375 
Q 71.484375 -9.375 61.71875 -10.546875 
Q 60.9375 -5.859375 57.421875 -1.171875 
Q 64.0625 -1.953125 66.796875 -1.75 
Q 69.53125 -1.5625 69.921875 2.34375 
L 69.921875 41.40625 
L 54.296875 41.40625 
Q 46.875 41.40625 40.234375 41.015625 
L 40.234375 48.828125 
Q 47.265625 48.4375 54.296875 48.4375 
z
M 35.9375 53.125 
Q 32.421875 51.171875 30.65625 48.046875 
Q 28.90625 44.921875 25.78125 40.234375 
L 25.78125 5.078125 
Q 25.78125 0 26.171875 -10.546875 
L 17.96875 -10.546875 
Q 18.359375 1.171875 18.359375 7.03125 
L 18.359375 32.03125 
Q 14.84375 26.171875 8.984375 20.3125 
Q 6.25 24.21875 3.90625 26.953125 
Q 12.890625 35.546875 17.96875 43.359375 
Q 23.046875 51.171875 26.953125 58.203125 
Q 30.859375 55.859375 35.9375 53.125 
z
M 76.171875 75 
Q 82.8125 75 89.84375 75.390625 
L 89.84375 67.96875 
Q 82.8125 68.359375 75.390625 68.359375 
L 60.9375 68.359375 
Q 52.34375 68.359375 46.09375 67.96875 
L 46.09375 75.390625 
Q 52.34375 75 60.9375 75 
z
M 32.421875 76.953125 
Q 29.296875 76.5625 24.21875 68.546875 
Q 19.140625 60.546875 10.15625 50.78125 
Q 7.8125 53.90625 5.078125 56.640625 
Q 11.328125 62.890625 16.40625 70.109375 
Q 21.484375 77.34375 23.828125 82.8125 
Q 27.734375 80.46875 32.421875 76.953125 
z
" id="SimHei-34892"/>
      <path d="M 39.453125 71.484375 
Q 39.0625 57.421875 39.0625 37.5 
Q 39.0625 17.578125 39.453125 6.25 
L 31.25 6.25 
L 31.25 13.671875 
L 15.625 13.671875 
L 15.625 0.78125 
L 7.421875 0.78125 
Q 7.8125 18.75 7.8125 36.71875 
Q 7.8125 55.078125 7.421875 71.484375 
L 39.453125 71.484375 
z
M 76.171875 59.765625 
Q 76.171875 71.484375 75.78125 81.640625 
L 84.375 81.640625 
Q 83.984375 71.484375 83.984375 59.765625 
Q 89.84375 59.765625 96.484375 60.15625 
L 96.484375 52.734375 
Q 89.84375 53.125 83.984375 53.125 
L 83.984375 0.78125 
Q 83.984375 -5.078125 79.296875 -6.640625 
Q 74.609375 -8.203125 67.1875 -8.984375 
Q 67.1875 -4.296875 62.890625 0 
Q 70.3125 -0.78125 73.234375 -0.390625 
Q 76.171875 0 76.171875 4.6875 
L 76.171875 53.125 
Q 56.640625 53.125 43.359375 52.734375 
L 43.359375 60.15625 
Q 55.859375 59.765625 76.171875 59.765625 
z
M 31.25 20.3125 
L 31.25 39.84375 
L 15.625 39.84375 
L 15.625 20.3125 
z
M 31.25 46.484375 
L 31.25 64.84375 
L 15.625 64.84375 
L 15.625 46.484375 
z
M 55.46875 42.578125 
Q 60.546875 34.375 65.234375 25 
Q 61.328125 23.828125 57.03125 21.484375 
Q 53.90625 30.859375 48.046875 39.0625 
Q 51.5625 40.625 55.46875 42.578125 
z
" id="SimHei-26102"/>
      <path d="M 69.53125 55.46875 
Q 69.140625 48.046875 69.140625 42.578125 
L 69.140625 21.875 
Q 69.140625 16.796875 69.53125 9.765625 
L 30.078125 9.765625 
Q 30.46875 16.796875 30.46875 22.265625 
L 30.46875 42.578125 
Q 30.46875 48.046875 30.078125 55.46875 
L 69.53125 55.46875 
z
M 90.625 76.171875 
Q 90.234375 68.75 90.234375 61.328125 
L 90.234375 3.90625 
Q 90.625 -5.078125 85.34375 -7.03125 
Q 80.078125 -8.984375 73.828125 -9.765625 
Q 73.4375 -5.078125 70.703125 -0.390625 
Q 78.125 -0.78125 80.265625 0.390625 
Q 82.421875 1.5625 82.421875 5.46875 
L 82.421875 69.53125 
L 58.984375 69.53125 
Q 49.609375 69.53125 41.40625 69.140625 
L 41.40625 76.5625 
Q 49.609375 76.171875 58.984375 76.171875 
z
M 8.59375 -8.203125 
Q 9.375 -0.390625 9.375 8.203125 
L 9.375 49.21875 
Q 9.375 57.421875 8.59375 62.890625 
L 17.578125 62.890625 
Q 17.1875 57.03125 17.1875 51.5625 
L 17.1875 7.8125 
Q 17.1875 0 17.578125 -8.203125 
z
M 61.71875 16.015625 
L 61.71875 30.46875 
L 37.890625 30.46875 
L 37.890625 16.015625 
z
M 61.71875 36.71875 
L 61.71875 49.21875 
L 37.890625 49.21875 
L 37.890625 36.71875 
z
M 23.828125 82.8125 
Q 27.34375 78.125 34.765625 67.96875 
Q 30.46875 66.015625 26.5625 63.671875 
Q 22.65625 71.484375 16.796875 78.515625 
Q 21.09375 81.640625 23.828125 82.8125 
z
" id="SimHei-38388"/>
      <path d="M 46.484375 -3.125 
L 42.1875 -7.421875 
Q 32.421875 1.953125 27.53125 12.109375 
Q 22.65625 22.265625 22.65625 35.15625 
Q 22.65625 48.046875 27.53125 58.203125 
Q 32.421875 68.359375 42.1875 78.125 
L 46.484375 73.828125 
Q 37.5 65.234375 33 56.046875 
Q 28.515625 46.875 28.515625 35.15625 
Q 28.515625 23.4375 33 14.25 
Q 37.5 5.078125 46.484375 -3.125 
z
" id="SimHei-40"/>
      <path d="M 42.96875 14.0625 
Q 42.96875 7.8125 38.078125 4.484375 
Q 33.203125 1.171875 25.78125 1.171875 
Q 16.40625 1.171875 11.328125 4.875 
Q 6.25 8.59375 6.25 15.625 
L 14.0625 15.625 
Q 14.0625 10.9375 17.375 9.375 
Q 20.703125 7.8125 25.390625 7.8125 
Q 30.078125 7.8125 32.421875 9.5625 
Q 34.765625 11.328125 34.765625 14.0625 
Q 34.765625 16.015625 32.8125 17.96875 
Q 30.859375 19.921875 23.046875 21.09375 
Q 14.0625 22.265625 10.734375 25.578125 
Q 7.421875 28.90625 7.421875 34.375 
Q 7.421875 39.0625 11.90625 42.765625 
Q 16.40625 46.484375 25 46.484375 
Q 32.8125 46.484375 37.296875 42.96875 
Q 41.796875 39.453125 41.796875 33.59375 
L 33.984375 33.59375 
Q 33.984375 37.109375 31.4375 38.46875 
Q 28.90625 39.84375 25 39.84375 
Q 19.921875 39.84375 17.765625 38.078125 
Q 15.625 36.328125 15.625 33.984375 
Q 15.625 31.25 17.578125 29.6875 
Q 19.53125 28.125 25.78125 27.34375 
Q 35.9375 25.78125 39.453125 22.453125 
Q 42.96875 19.140625 42.96875 14.0625 
z
" id="SimHei-115"/>
      <path d="M 26.171875 35.15625 
Q 26.171875 22.265625 21.28125 12.109375 
Q 16.40625 1.953125 6.640625 -7.421875 
L 2.34375 -3.125 
Q 11.328125 5.078125 15.8125 14.25 
Q 20.3125 23.4375 20.3125 35.15625 
Q 20.3125 46.875 15.8125 56.046875 
Q 11.328125 65.234375 2.34375 73.828125 
L 6.640625 78.125 
Q 16.40625 68.359375 21.28125 58.203125 
Q 26.171875 48.046875 26.171875 35.15625 
z
" id="SimHei-41"/>
     </defs>
     <g transform="translate(435.452813 186.66225)rotate(-90)scale(0.15 -0.15)">
      <use xlink:href="#SimHei-36816"/>
      <use x="100" xlink:href="#SimHei-34892"/>
      <use x="200" xlink:href="#SimHei-26102"/>
      <use x="300" xlink:href="#SimHei-38388"/>
      <use x="400" xlink:href="#SimHei-40"/>
      <use x="450" xlink:href="#SimHei-115"/>
      <use x="500" xlink:href="#SimHei-41"/>
     </g>
    </g>
   </g>
   <g id="line2d_29">
    <path clip-path="url(#p41c13ba0b0)" d="M 59.936634 270.446874 
L 141.10027 241.174554 
L 222.263906 153.39561 
L 303.427543 123.096858 
L 384.591179 61.891098 
" style="fill:none;stroke:#000000;stroke-linecap:square;stroke-opacity:0.5;stroke-width:1.5;"/>
    <defs>
     <path d="M 0 -4.5 
L -4.5 4.5 
L 4.5 4.5 
z
" id="ma92006cc31" style="stroke:#000000;stroke-linejoin:miter;stroke-opacity:0.5;"/>
    </defs>
    <g clip-path="url(#p41c13ba0b0)">
     <use style="fill-opacity:0.5;stroke:#000000;stroke-linejoin:miter;stroke-opacity:0.5;" x="59.936634" xlink:href="#ma92006cc31" y="270.446874"/>
     <use style="fill-opacity:0.5;stroke:#000000;stroke-linejoin:miter;stroke-opacity:0.5;" x="141.10027" xlink:href="#ma92006cc31" y="241.174554"/>
     <use style="fill-opacity:0.5;stroke:#000000;stroke-linejoin:miter;stroke-opacity:0.5;" x="222.263906" xlink:href="#ma92006cc31" y="153.39561"/>
     <use style="fill-opacity:0.5;stroke:#000000;stroke-linejoin:miter;stroke-opacity:0.5;" x="303.427543" xlink:href="#ma92006cc31" y="123.096858"/>
     <use style="fill-opacity:0.5;stroke:#000000;stroke-linejoin:miter;stroke-opacity:0.5;" x="384.591179" xlink:href="#ma92006cc31" y="61.891098"/>
    </g>
   </g>
   <g id="patch_8">
    <path d="M 43.703906 278.46825 
L 43.703906 12.35625 
" style="fill:none;stroke:#000000;stroke-linecap:square;stroke-linejoin:miter;stroke-width:0.8;"/>
   </g>
   <g id="patch_9">
    <path d="M 400.823906 278.46825 
L 400.823906 12.35625 
" style="fill:none;stroke:#000000;stroke-linecap:square;stroke-linejoin:miter;stroke-width:0.8;"/>
   </g>
   <g id="patch_10">
    <path d="M 43.703906 278.46825 
L 400.823906 278.46825 
" style="fill:none;stroke:#000000;stroke-linecap:square;stroke-linejoin:miter;stroke-width:0.8;"/>
   </g>
   <g id="patch_11">
    <path d="M 43.703906 12.35625 
L 400.823906 12.35625 
" style="fill:none;stroke:#000000;stroke-linecap:square;stroke-linejoin:miter;stroke-width:0.8;"/>
   </g>
   <g id="legend_2">
    <g id="patch_12">
     <path d="M 290.223906 43.626563 
L 391.023906 43.626563 
Q 393.823906 43.626563 393.823906 40.826563 
L 393.823906 22.15625 
Q 393.823906 19.35625 391.023906 19.35625 
L 290.223906 19.35625 
Q 287.423906 19.35625 287.423906 22.15625 
L 287.423906 40.826563 
Q 287.423906 43.626563 290.223906 43.626563 
z
" style="fill:#ffffff;opacity:0.8;"/>
    </g>
    <g id="line2d_30">
     <path d="M 293.023906 31.376563 
L 321.023906 31.376563 
" style="fill:none;stroke:#000000;stroke-linecap:square;stroke-opacity:0.5;stroke-width:1.5;"/>
    </g>
    <g id="line2d_31">
     <g>
      <use style="fill-opacity:0.5;stroke:#000000;stroke-linejoin:miter;stroke-opacity:0.5;" x="307.023906" xlink:href="#ma92006cc31" y="31.376563"/>
     </g>
    </g>
    <g id="text_28">
     <!-- 运行时间 -->
     <g transform="translate(332.223906 36.276563)scale(0.14 -0.14)">
      <use xlink:href="#SimHei-36816"/>
      <use x="100" xlink:href="#SimHei-34892"/>
      <use x="200" xlink:href="#SimHei-26102"/>
      <use x="300" xlink:href="#SimHei-38388"/>
     </g>
    </g>
   </g>
  </g>
 </g>
 <defs>
  <clipPath id="p41c13ba0b0">
   <rect height="266.112" width="357.12" x="43.703906" y="12.35625"/>
  </clipPath>
 </defs>
</svg>
