<?xml version="1.0" encoding="utf-8" standalone="no"?>
<!DOCTYPE svg PUBLIC "-//W3C//DTD SVG 1.1//EN"
  "http://www.w3.org/Graphics/SVG/1.1/DTD/svg11.dtd">
<!-- Created with matplotlib (https://matplotlib.org/) -->
<svg height="332.273719pt" version="1.1" viewBox="0 0 415.523906 332.273719" width="415.523906pt" xmlns="http://www.w3.org/2000/svg" xmlns:xlink="http://www.w3.org/1999/xlink">
 <defs>
  <style type="text/css">
*{stroke-linecap:butt;stroke-linejoin:round;}
  </style>
 </defs>
 <g id="figure_1">
  <g id="patch_1">
   <path d="M 0 332.273719 
L 415.523906 332.273719 
L 415.523906 0 
L 0 0 
z
" style="fill:#ffffff;"/>
  </g>
  <g id="axes_1">
   <g id="patch_2">
    <path d="M 51.203906 291.4995 
L 408.323906 291.4995 
L 408.323906 25.3875 
L 51.203906 25.3875 
z
" style="fill:#ffffff;"/>
   </g>
   <g id="matplotlib.axis_1">
    <g id="xtick_1">
     <g id="line2d_1">
      <defs>
       <path d="M 0 0 
L 0 -3.5 
" id="m7dbedae8a6" style="stroke:#000000;stroke-width:0.8;"/>
      </defs>
      <g>
       <use style="stroke:#000000;stroke-width:0.8;" x="86.915906" xlink:href="#m7dbedae8a6" y="291.4995"/>
      </g>
     </g>
     <g id="text_1">
      <!-- 1 -->
      <defs>
       <path d="M 21.875 56.25 
Q 16.796875 51.171875 8.984375 46.484375 
L 8.984375 53.90625 
Q 18.75 60.546875 25 69.53125 
L 29.6875 69.53125 
L 29.6875 2.34375 
L 21.875 2.34375 
z
" id="SimHei-49"/>
      </defs>
      <g transform="translate(83.165906 305.312)scale(0.15 -0.15)">
       <use xlink:href="#SimHei-49"/>
      </g>
     </g>
    </g>
    <g id="xtick_2">
     <g id="line2d_2">
      <g>
       <use style="stroke:#000000;stroke-width:0.8;" x="158.339906" xlink:href="#m7dbedae8a6" y="291.4995"/>
      </g>
     </g>
     <g id="text_2">
      <!-- 2 -->
      <defs>
       <path d="M 4.6875 3.90625 
Q 5.078125 9.765625 10.15625 14.453125 
Q 15.234375 19.140625 23.046875 29.09375 
Q 30.859375 39.0625 33.203125 44.53125 
Q 35.546875 50 34.953125 53.90625 
Q 34.375 57.8125 31.25 60.34375 
Q 28.125 62.890625 24.015625 62.5 
Q 19.921875 62.109375 16.203125 59.375 
Q 12.5 56.640625 10.546875 51.171875 
L 3.125 52.34375 
Q 6.25 61.328125 11.125 65.421875 
Q 16.015625 69.53125 22.65625 69.921875 
Q 26.5625 70.3125 29.6875 69.71875 
Q 32.8125 69.140625 36.125 66.984375 
Q 39.453125 64.84375 41.59375 60.546875 
Q 43.75 56.25 43.15625 50.1875 
Q 42.578125 44.140625 37.109375 35.734375 
Q 31.640625 27.34375 16.015625 9.375 
L 44.140625 9.375 
L 44.140625 2.34375 
L 4.6875 2.34375 
z
" id="SimHei-50"/>
      </defs>
      <g transform="translate(154.589906 305.312)scale(0.15 -0.15)">
       <use xlink:href="#SimHei-50"/>
      </g>
     </g>
    </g>
    <g id="xtick_3">
     <g id="line2d_3">
      <g>
       <use style="stroke:#000000;stroke-width:0.8;" x="229.763906" xlink:href="#m7dbedae8a6" y="291.4995"/>
      </g>
     </g>
     <g id="text_3">
      <!-- 3 -->
      <defs>
       <path d="M 3.90625 19.140625 
L 10.9375 20.3125 
Q 12.5 15.234375 16.015625 11.90625 
Q 19.53125 8.59375 24.796875 8.78125 
Q 30.078125 8.984375 33.203125 13.078125 
Q 36.328125 17.1875 35.9375 22.453125 
Q 35.546875 27.734375 31.828125 30.65625 
Q 28.125 33.59375 19.921875 34.765625 
L 19.921875 39.84375 
Q 28.125 40.625 31.828125 44.140625 
Q 35.546875 47.65625 35.15625 53.3125 
Q 34.765625 58.984375 30.078125 61.515625 
Q 25.390625 64.0625 20.109375 62.109375 
Q 14.84375 60.15625 11.71875 51.171875 
L 4.6875 52.34375 
Q 7.03125 59.375 11.125 64.0625 
Q 15.234375 68.75 22.265625 69.53125 
Q 29.296875 70.3125 34.5625 67.765625 
Q 39.84375 65.234375 41.984375 59.953125 
Q 44.140625 54.6875 42.578125 48.4375 
Q 41.015625 42.1875 33.59375 37.5 
Q 39.0625 35.15625 41.984375 30.46875 
Q 44.921875 25.78125 43.9375 18.15625 
Q 42.96875 10.546875 37.109375 5.859375 
Q 31.25 1.171875 23.828125 1.359375 
Q 16.40625 1.5625 10.9375 6.046875 
Q 5.46875 10.546875 3.90625 19.140625 
z
" id="SimHei-51"/>
      </defs>
      <g transform="translate(226.013906 305.312)scale(0.15 -0.15)">
       <use xlink:href="#SimHei-51"/>
      </g>
     </g>
    </g>
    <g id="xtick_4">
     <g id="line2d_4">
      <g>
       <use style="stroke:#000000;stroke-width:0.8;" x="301.187906" xlink:href="#m7dbedae8a6" y="291.4995"/>
      </g>
     </g>
     <g id="text_4">
      <!-- 4 -->
      <defs>
       <path d="M 31.25 17.1875 
L 1.171875 17.1875 
L 1.171875 23.828125 
L 32.8125 69.53125 
L 38.671875 69.53125 
L 38.671875 23.828125 
L 48.046875 23.828125 
L 48.046875 17.1875 
L 38.671875 17.1875 
L 38.671875 2.34375 
L 31.25 2.34375 
z
M 31.25 23.828125 
L 31.25 54.6875 
L 9.375 23.828125 
z
" id="SimHei-52"/>
      </defs>
      <g transform="translate(297.437906 305.312)scale(0.15 -0.15)">
       <use xlink:href="#SimHei-52"/>
      </g>
     </g>
    </g>
    <g id="xtick_5">
     <g id="line2d_5">
      <g>
       <use style="stroke:#000000;stroke-width:0.8;" x="372.611906" xlink:href="#m7dbedae8a6" y="291.4995"/>
      </g>
     </g>
     <g id="text_5">
      <!-- 5 -->
      <defs>
       <path d="M 8.59375 20.703125 
Q 11.328125 10.15625 17.96875 8.984375 
Q 24.609375 7.8125 28.703125 10.34375 
Q 32.8125 12.890625 34.5625 16.984375 
Q 36.328125 21.09375 36.125 26.171875 
Q 35.9375 31.25 33.390625 34.765625 
Q 30.859375 38.28125 26.953125 39.453125 
Q 23.046875 40.625 18.15625 39.453125 
Q 13.28125 38.28125 10.15625 33.984375 
L 3.515625 34.765625 
Q 4.296875 37.109375 10.9375 68.359375 
L 41.796875 68.359375 
L 41.796875 61.328125 
L 16.796875 61.328125 
Q 14.84375 50.78125 12.890625 44.53125 
Q 18.75 47.265625 23.828125 47.0625 
Q 28.90625 46.875 33.59375 44.71875 
Q 38.28125 42.578125 40.421875 38.859375 
Q 42.578125 35.15625 43.546875 31.4375 
Q 44.53125 27.734375 44.328125 23.4375 
Q 44.140625 19.140625 42.578125 14.640625 
Q 41.015625 10.15625 37.890625 7.21875 
Q 34.765625 4.296875 30.265625 2.53125 
Q 25.78125 0.78125 19.921875 1.171875 
Q 14.0625 1.5625 8.78125 5.46875 
Q 3.515625 9.375 1.5625 18.75 
z
" id="SimHei-53"/>
      </defs>
      <g transform="translate(368.861906 305.312)scale(0.15 -0.15)">
       <use xlink:href="#SimHei-53"/>
      </g>
     </g>
    </g>
    <g id="text_6">
     <!-- 实验次数 -->
     <defs>
      <path d="M 64.453125 54.6875 
Q 63.28125 50 62.5 41.796875 
Q 61.71875 33.59375 60.15625 24.21875 
L 78.515625 24.21875 
Q 85.546875 24.21875 93.359375 24.609375 
L 93.359375 17.1875 
Q 85.15625 17.578125 78.125 17.578125 
L 58.203125 17.578125 
Q 54.6875 9.765625 47.65625 3.90625 
Q 40.625 -1.953125 31.25 -5.265625 
Q 21.875 -8.59375 14.453125 -10.546875 
Q 12.890625 -5.859375 7.8125 -3.125 
Q 19.140625 -1.953125 32.03125 3.3125 
Q 44.921875 8.59375 50 17.578125 
L 22.265625 17.578125 
Q 15.234375 17.578125 6.640625 17.1875 
L 6.640625 24.609375 
Q 15.625 24.21875 22.265625 24.21875 
L 52.734375 24.21875 
Q 53.90625 30.859375 54.484375 38.46875 
Q 55.078125 46.09375 54.6875 57.03125 
Q 59.375 55.46875 64.453125 54.6875 
z
M 50.78125 82.03125 
Q 53.90625 75.78125 56.25 68.359375 
L 90.234375 68.359375 
Q 89.84375 64.0625 89.84375 59.765625 
Q 89.84375 55.859375 90.234375 51.171875 
L 81.25 51.171875 
L 81.25 62.109375 
L 19.140625 62.109375 
L 19.140625 50.390625 
L 10.546875 50.390625 
Q 10.9375 55.078125 10.9375 59.375 
Q 10.9375 64.0625 10.546875 68.359375 
L 46.484375 68.359375 
Q 45.3125 73.046875 42.1875 79.296875 
Q 45.3125 80.46875 50.78125 82.03125 
z
M 62.5 12.890625 
Q 71.09375 8.203125 78.90625 4.09375 
Q 86.71875 0 92.578125 -3.515625 
Q 89.84375 -6.640625 86.71875 -10.15625 
Q 79.6875 -5.078125 71.484375 -0.578125 
Q 63.28125 3.90625 57.421875 6.25 
Q 60.546875 10.15625 62.5 12.890625 
z
M 18.359375 42.96875 
Q 25 39.84375 36.71875 32.03125 
Q 35.15625 29.6875 32.03125 25.78125 
Q 21.09375 33.984375 14.453125 36.71875 
Q 16.796875 39.0625 18.359375 42.96875 
z
M 49.21875 44.140625 
Q 46.484375 41.015625 44.53125 37.890625 
Q 32.03125 46.875 26.171875 48.828125 
Q 28.125 51.5625 30.46875 55.078125 
z
" id="SimHei-23454"/>
      <path d="M 35.9375 73.828125 
Q 35.15625 70.3125 34.765625 63.671875 
L 32.03125 33.203125 
L 39.453125 33.203125 
Q 39.0625 30.078125 38.671875 22.65625 
L 37.109375 1.171875 
Q 37.109375 -7.03125 32.421875 -8.203125 
Q 27.734375 -9.375 19.53125 -10.546875 
Q 18.359375 -5.078125 16.40625 -1.5625 
Q 24.609375 -1.5625 27.140625 -1.359375 
Q 29.6875 -1.171875 30.46875 2.34375 
L 31.640625 26.5625 
L 8.59375 26.5625 
Q 8.984375 33.984375 9.171875 42.765625 
Q 9.375 51.5625 9.375 59.375 
L 17.1875 59.375 
Q 16.40625 55.078125 16.015625 48.234375 
Q 15.625 41.40625 15.625 33.203125 
L 25.390625 33.203125 
L 28.125 67.578125 
L 17.578125 67.578125 
Q 11.328125 67.578125 5.46875 67.1875 
L 5.46875 74.21875 
Q 11.328125 73.828125 17.578125 73.828125 
z
M 67.578125 76.171875 
Q 73.828125 64.453125 80.46875 58.984375 
Q 87.109375 53.515625 96.09375 50.390625 
Q 92.578125 47.265625 90.625 42.578125 
Q 85.15625 45.703125 80.078125 50 
L 80.078125 43.359375 
Q 75 43.75 65.625 43.75 
Q 56.25 43.75 50.390625 43.359375 
L 50.390625 49.609375 
Q 48.046875 46.484375 43.75 41.40625 
Q 40.234375 44.921875 36.328125 46.875 
Q 42.578125 51.171875 45.890625 55.46875 
Q 49.21875 59.765625 51.75 64.453125 
Q 54.296875 69.140625 56.046875 73.046875 
Q 57.8125 76.953125 58.984375 81.640625 
Q 64.0625 80.46875 69.53125 79.296875 
z
M 87.5 33.59375 
Q 85.546875 31.25 84.375 27.140625 
Q 83.203125 23.046875 80.65625 14.25 
Q 78.125 5.46875 76.5625 0.390625 
L 82.03125 0.390625 
Q 84.765625 0.390625 90.625 0.78125 
L 90.625 -6.25 
Q 85.546875 -5.859375 82.03125 -5.859375 
L 51.953125 -5.859375 
Q 44.921875 -5.859375 41.796875 -6.25 
L 41.796875 0.78125 
Q 46.484375 0.390625 52.34375 0.390625 
L 69.921875 0.390625 
Q 73.046875 8.984375 75 17.96875 
L 78.90625 35.9375 
Q 82.03125 34.765625 87.5 33.59375 
z
M 79.6875 50.390625 
Q 75 53.90625 71.09375 58.984375 
Q 67.1875 64.0625 63.28125 71.875 
Q 60.15625 65.625 57.609375 61.125 
Q 55.078125 56.640625 50.78125 50.390625 
z
M 50.78125 33.984375 
Q 52.34375 28.515625 54.09375 21.484375 
Q 55.859375 14.453125 57.421875 8.59375 
Q 53.90625 8.203125 50.78125 6.640625 
Q 49.609375 14.0625 48.234375 19.140625 
Q 46.875 24.21875 44.53125 32.03125 
Q 47.65625 33.203125 50.78125 33.984375 
z
M 27.734375 17.578125 
Q 27.34375 14.84375 26.953125 10.9375 
Q 21.09375 9.765625 17.375 8.984375 
Q 13.671875 8.203125 5.859375 5.859375 
Q 4.6875 10.15625 3.125 14.453125 
Q 8.59375 14.84375 14.453125 15.625 
Q 20.3125 16.40625 27.734375 17.578125 
z
M 67.1875 25.78125 
Q 67.96875 20.703125 69.140625 12.890625 
L 62.890625 11.328125 
Q 61.328125 19.921875 60.546875 24.40625 
Q 59.765625 28.90625 58.59375 34.765625 
Q 62.109375 35.546875 65.625 35.9375 
z
" id="SimHei-39564"/>
      <path d="M 64.84375 47.265625 
Q 62.5 39.84375 63.28125 34.171875 
Q 64.0625 28.515625 66.796875 22.65625 
Q 69.53125 16.796875 75 11.71875 
Q 80.46875 6.640625 85.546875 3.3125 
Q 90.625 0 96.09375 -2.34375 
Q 91.796875 -5.46875 89.84375 -9.765625 
Q 82.03125 -5.078125 76.359375 -0.390625 
Q 70.703125 4.296875 66.796875 9.5625 
Q 62.890625 14.84375 59.765625 22.265625 
Q 55.078125 9.765625 46.09375 1.953125 
Q 37.109375 -5.859375 28.90625 -10.15625 
Q 26.171875 -6.25 23.046875 -3.515625 
Q 31.640625 0 38.859375 5.65625 
Q 46.09375 11.328125 49.40625 17.1875 
Q 52.734375 23.046875 53.90625 28.515625 
Q 55.078125 33.984375 55.265625 37.5 
Q 55.46875 41.015625 55.078125 48.828125 
Q 59.765625 47.65625 64.84375 47.265625 
z
M 57.8125 77.734375 
Q 56.640625 76.5625 54.296875 71.484375 
Q 51.953125 66.40625 50.78125 63.671875 
L 90.234375 63.671875 
Q 88.28125 58.203125 86.71875 52.53125 
Q 85.15625 46.875 82.421875 39.0625 
Q 78.125 40.234375 74.609375 40.625 
Q 78.515625 52.34375 79.6875 57.03125 
L 48.4375 57.03125 
Q 46.484375 53.125 43.9375 48.4375 
Q 41.40625 43.75 37.890625 38.28125 
Q 35.546875 40.625 30.859375 42.1875 
Q 35.9375 47.65625 41.015625 58.78125 
Q 46.09375 69.921875 48.828125 81.25 
Q 53.90625 78.515625 57.8125 77.734375 
z
M 31.640625 31.25 
Q 28.515625 26.171875 23.046875 16.984375 
Q 17.578125 7.8125 11.328125 -3.125 
Q 7.8125 -0.390625 3.90625 2.734375 
Q 11.328125 11.328125 16.203125 19.71875 
Q 21.09375 28.125 24.609375 36.328125 
Q 27.34375 33.984375 31.640625 31.25 
z
M 14.0625 74.21875 
Q 26.953125 58.203125 30.46875 52.734375 
Q 27.34375 50.78125 23.4375 47.65625 
Q 19.53125 55.078125 7.8125 69.140625 
Q 10.9375 71.484375 14.0625 74.21875 
z
" id="SimHei-27425"/>
      <path d="M 70.703125 76.953125 
Q 69.921875 75 68.75 71.671875 
Q 67.578125 68.359375 65.234375 59.765625 
L 83.203125 59.765625 
Q 87.109375 59.765625 92.578125 60.15625 
L 92.578125 53.125 
Q 88.28125 53.515625 85.9375 53.515625 
Q 85.9375 47.265625 83.78125 33.78125 
Q 81.640625 20.3125 76.171875 10.546875 
Q 80.078125 5.859375 84.953125 2.140625 
Q 89.84375 -1.5625 94.140625 -3.125 
Q 89.453125 -6.640625 87.890625 -9.765625 
Q 83.203125 -7.03125 79.296875 -3.515625 
Q 75.390625 0 71.484375 5.078125 
Q 67.1875 0.390625 62.296875 -2.921875 
Q 57.421875 -6.25 50 -10.15625 
Q 48.046875 -6.640625 44.53125 -4.6875 
Q 50.390625 -2.34375 57.03125 1.953125 
Q 63.671875 6.25 67.1875 10.546875 
Q 64.453125 16.015625 61.90625 22.265625 
Q 59.375 28.515625 57.421875 38.671875 
Q 56.25 35.546875 53.515625 30.46875 
Q 50.78125 32.03125 46.875 33.59375 
Q 53.125 44.53125 57.03125 57.421875 
Q 60.9375 70.3125 62.109375 79.6875 
Q 66.796875 77.734375 70.703125 76.953125 
z
M 32.8125 35.15625 
Q 31.25 33.59375 29.296875 30.078125 
L 50.78125 30.078125 
Q 48.4375 20.3125 42.578125 10.546875 
Q 48.828125 8.203125 52.34375 6.25 
Q 50.390625 3.515625 48.828125 0.390625 
Q 45.3125 2.734375 38.28125 5.078125 
Q 30.46875 -3.515625 11.328125 -10.15625 
Q 9.375 -5.859375 6.25 -4.296875 
Q 24.609375 0 31.25 7.421875 
Q 20.3125 10.15625 13.28125 12.109375 
Q 15.625 15.625 19.53125 23.828125 
Q 15.625 23.828125 6.640625 23.4375 
L 6.640625 30.46875 
Q 14.0625 30.078125 21.875 30.078125 
Q 23.4375 33.59375 24.21875 37.890625 
Q 28.515625 36.328125 32.8125 35.15625 
z
M 27.734375 61.71875 
Q 27.734375 71.09375 27.34375 79.6875 
L 35.15625 79.6875 
Q 34.765625 71.484375 34.765625 61.71875 
Q 48.046875 61.71875 53.515625 62.109375 
L 53.515625 55.078125 
Q 48.046875 55.46875 34.765625 55.46875 
Q 34.765625 44.140625 35.15625 37.890625 
L 27.34375 37.890625 
Q 27.734375 43.359375 27.734375 51.5625 
Q 25.78125 48.4375 20.3125 43.546875 
Q 14.84375 38.671875 10.15625 35.9375 
Q 8.203125 39.453125 4.296875 41.015625 
Q 7.8125 42.1875 13.671875 46.484375 
Q 19.53125 50.78125 22.65625 55.46875 
Q 14.84375 55.46875 7.8125 55.078125 
L 7.8125 62.109375 
Q 14.453125 61.71875 27.734375 61.71875 
z
M 62.109375 49.609375 
Q 65.625 26.5625 71.875 17.578125 
Q 75.78125 26.5625 77.140625 35.734375 
Q 78.515625 44.921875 78.90625 53.515625 
L 63.671875 53.515625 
L 62.109375 49.609375 
z
M 22.65625 15.625 
Q 27.34375 14.453125 35.546875 12.5 
Q 38.671875 16.40625 41.40625 23.828125 
L 26.953125 23.828125 
Q 25 19.921875 22.65625 15.625 
z
M 51.953125 75.390625 
Q 50 72.265625 48.828125 69.53125 
Q 47.65625 66.796875 45.703125 62.890625 
Q 42.578125 64.453125 39.453125 65.234375 
Q 42.578125 70.3125 45.3125 78.125 
Q 49.21875 76.171875 51.953125 75.390625 
z
M 40.234375 52.734375 
Q 45.3125 47.65625 50 42.578125 
Q 47.65625 40.625 44.921875 37.890625 
Q 39.453125 44.53125 35.9375 48.4375 
Q 38.28125 50.390625 40.234375 52.734375 
z
M 14.453125 78.125 
Q 19.921875 72.65625 23.4375 67.1875 
L 17.578125 63.671875 
Q 14.84375 69.140625 9.375 73.828125 
Q 12.890625 76.171875 14.453125 78.125 
z
" id="SimHei-25968"/>
     </defs>
     <g transform="translate(199.763906 323.198719)scale(0.15 -0.15)">
      <use xlink:href="#SimHei-23454"/>
      <use x="100" xlink:href="#SimHei-39564"/>
      <use x="200" xlink:href="#SimHei-27425"/>
      <use x="300" xlink:href="#SimHei-25968"/>
     </g>
    </g>
   </g>
   <g id="matplotlib.axis_2">
    <g id="ytick_1">
     <g id="line2d_6">
      <defs>
       <path d="M 0 0 
L 3.5 0 
" id="ma7f13b4664" style="stroke:#000000;stroke-width:0.8;"/>
      </defs>
      <g>
       <use style="stroke:#000000;stroke-width:0.8;" x="51.203906" xlink:href="#ma7f13b4664" y="276.7155"/>
      </g>
     </g>
     <g id="text_7">
      <!-- 20 -->
      <defs>
       <path d="M 3.125 29.296875 
Q 3.90625 50 6.4375 56.046875 
Q 8.984375 62.109375 13.671875 66.015625 
Q 18.359375 69.921875 25.1875 69.921875 
Q 32.03125 69.921875 37.109375 64.25 
Q 42.1875 58.59375 43.75 50 
Q 45.3125 41.40625 44.71875 30.265625 
Q 44.140625 19.140625 40.8125 12.109375 
Q 37.5 5.078125 30.859375 2.34375 
Q 24.21875 -0.390625 17.578125 2.921875 
Q 10.9375 6.25 8.203125 11.71875 
Q 5.46875 17.1875 4.296875 23.234375 
Q 3.125 29.296875 3.90625 50 
z
M 12.890625 52.734375 
Q 10.546875 31.25 12.5 22.84375 
Q 14.453125 14.453125 18.9375 10.9375 
Q 23.4375 7.421875 28.125 9.5625 
Q 32.8125 11.71875 34.953125 18.15625 
Q 37.109375 24.609375 37.109375 32.21875 
Q 37.109375 39.84375 36.515625 46.09375 
Q 35.9375 52.34375 33 57.421875 
Q 30.078125 62.5 25.1875 62.6875 
Q 20.3125 62.890625 16.59375 57.8125 
Q 12.890625 52.734375 10.546875 31.25 
z
" id="SimHei-48"/>
      </defs>
      <g transform="translate(32.703906 281.87175)scale(0.15 -0.15)">
       <use xlink:href="#SimHei-50"/>
       <use x="50" xlink:href="#SimHei-48"/>
      </g>
     </g>
    </g>
    <g id="ytick_2">
     <g id="line2d_7">
      <g>
       <use style="stroke:#000000;stroke-width:0.8;" x="51.203906" xlink:href="#ma7f13b4664" y="247.1475"/>
      </g>
     </g>
     <g id="text_8">
      <!-- 30 -->
      <g transform="translate(32.703906 252.30375)scale(0.15 -0.15)">
       <use xlink:href="#SimHei-51"/>
       <use x="50" xlink:href="#SimHei-48"/>
      </g>
     </g>
    </g>
    <g id="ytick_3">
     <g id="line2d_8">
      <g>
       <use style="stroke:#000000;stroke-width:0.8;" x="51.203906" xlink:href="#ma7f13b4664" y="217.5795"/>
      </g>
     </g>
     <g id="text_9">
      <!-- 40 -->
      <g transform="translate(32.703906 222.73575)scale(0.15 -0.15)">
       <use xlink:href="#SimHei-52"/>
       <use x="50" xlink:href="#SimHei-48"/>
      </g>
     </g>
    </g>
    <g id="ytick_4">
     <g id="line2d_9">
      <g>
       <use style="stroke:#000000;stroke-width:0.8;" x="51.203906" xlink:href="#ma7f13b4664" y="188.0115"/>
      </g>
     </g>
     <g id="text_10">
      <!-- 50 -->
      <g transform="translate(32.703906 193.16775)scale(0.15 -0.15)">
       <use xlink:href="#SimHei-53"/>
       <use x="50" xlink:href="#SimHei-48"/>
      </g>
     </g>
    </g>
    <g id="ytick_5">
     <g id="line2d_10">
      <g>
       <use style="stroke:#000000;stroke-width:0.8;" x="51.203906" xlink:href="#ma7f13b4664" y="158.4435"/>
      </g>
     </g>
     <g id="text_11">
      <!-- 60 -->
      <defs>
       <path d="M 3.515625 19.53125 
Q 4.296875 30.859375 6.046875 34.765625 
Q 7.8125 38.671875 11.328125 44.53125 
L 27.34375 69.53125 
L 36.328125 69.53125 
L 19.921875 43.75 
Q 30.46875 46.484375 36.71875 42.96875 
Q 42.96875 39.453125 45.109375 34.953125 
Q 47.265625 30.46875 47.453125 25.1875 
Q 47.65625 19.921875 45.890625 14.84375 
Q 44.140625 9.765625 39.640625 5.65625 
Q 35.15625 1.5625 27.140625 1.171875 
Q 19.140625 0.78125 13.46875 4.09375 
Q 7.8125 7.421875 5.65625 13.46875 
Q 3.515625 19.53125 4.296875 30.859375 
z
M 12.5 16.015625 
Q 19.53125 8.59375 25.390625 8.203125 
Q 31.25 7.8125 35.15625 12.109375 
Q 39.0625 16.40625 39.0625 24.609375 
Q 39.0625 32.8125 34.171875 35.9375 
Q 29.296875 39.0625 23.234375 38.28125 
Q 17.1875 37.5 14.453125 32.421875 
Q 11.71875 27.34375 12.109375 21.671875 
Q 12.5 16.015625 19.53125 8.59375 
z
" id="SimHei-54"/>
      </defs>
      <g transform="translate(32.703906 163.59975)scale(0.15 -0.15)">
       <use xlink:href="#SimHei-54"/>
       <use x="50" xlink:href="#SimHei-48"/>
      </g>
     </g>
    </g>
    <g id="ytick_6">
     <g id="line2d_11">
      <g>
       <use style="stroke:#000000;stroke-width:0.8;" x="51.203906" xlink:href="#ma7f13b4664" y="128.8755"/>
      </g>
     </g>
     <g id="text_12">
      <!-- 70 -->
      <defs>
       <path d="M 13.28125 2.34375 
Q 20.3125 32.03125 37.890625 61.328125 
L 4.296875 61.328125 
L 4.296875 68.359375 
L 46.09375 68.359375 
L 46.09375 61.71875 
Q 27.734375 32.03125 21.875 2.34375 
L 13.28125 2.34375 
z
" id="SimHei-55"/>
      </defs>
      <g transform="translate(32.703906 134.03175)scale(0.15 -0.15)">
       <use xlink:href="#SimHei-55"/>
       <use x="50" xlink:href="#SimHei-48"/>
      </g>
     </g>
    </g>
    <g id="ytick_7">
     <g id="line2d_12">
      <g>
       <use style="stroke:#000000;stroke-width:0.8;" x="51.203906" xlink:href="#ma7f13b4664" y="99.3075"/>
      </g>
     </g>
     <g id="text_13">
      <!-- 80 -->
      <defs>
       <path d="M 2.734375 16.796875 
Q 2.734375 26.171875 5.078125 30.65625 
Q 7.421875 35.15625 12.890625 37.890625 
Q 8.203125 40.625 6.640625 43.9375 
Q 5.078125 47.265625 4.875 51.5625 
Q 4.6875 55.859375 6.046875 58.984375 
Q 7.421875 62.109375 10.15625 64.84375 
Q 12.890625 67.578125 16.203125 68.546875 
Q 19.53125 69.53125 23.4375 69.53125 
Q 27.34375 69.53125 30.46875 68.75 
Q 33.59375 67.96875 37.109375 65.421875 
Q 40.625 62.890625 42.1875 58.203125 
Q 43.75 53.515625 41.984375 47.265625 
Q 40.234375 41.015625 32.8125 37.5 
Q 39.453125 35.546875 42.1875 31.4375 
Q 44.921875 27.34375 44.921875 21.484375 
Q 44.921875 15.625 43.15625 12.109375 
Q 41.40625 8.59375 39.25 6.25 
Q 37.109375 3.90625 33.390625 2.53125 
Q 29.6875 1.171875 24.015625 1.171875 
Q 18.359375 1.171875 14.25 2.53125 
Q 10.15625 3.90625 7.421875 6.640625 
Q 4.6875 9.375 3.703125 13.078125 
Q 2.734375 16.796875 2.734375 26.171875 
z
M 10.9375 26.5625 
Q 10.546875 17.1875 12.296875 13.671875 
Q 14.0625 10.15625 18.75 9.171875 
Q 23.4375 8.203125 28.515625 9.375 
Q 33.59375 10.546875 35.546875 14.84375 
Q 37.5 19.140625 36.90625 23.4375 
Q 36.328125 27.734375 32.03125 30.65625 
Q 27.734375 33.59375 22.65625 33.203125 
Q 17.578125 32.8125 14.25 29.6875 
Q 10.9375 26.5625 10.546875 17.1875 
z
M 12.109375 56.25 
Q 12.109375 48.4375 14.84375 44.921875 
Q 17.578125 41.40625 23.4375 41.40625 
Q 29.296875 41.40625 32.21875 44.921875 
Q 35.15625 48.4375 34.953125 53.3125 
Q 34.765625 58.203125 31.4375 60.546875 
Q 28.125 62.890625 22.453125 62.5 
Q 16.796875 62.109375 14.453125 59.171875 
Q 12.109375 56.25 12.109375 48.4375 
z
" id="SimHei-56"/>
      </defs>
      <g transform="translate(32.703906 104.46375)scale(0.15 -0.15)">
       <use xlink:href="#SimHei-56"/>
       <use x="50" xlink:href="#SimHei-48"/>
      </g>
     </g>
    </g>
    <g id="ytick_8">
     <g id="line2d_13">
      <g>
       <use style="stroke:#000000;stroke-width:0.8;" x="51.203906" xlink:href="#ma7f13b4664" y="69.7395"/>
      </g>
     </g>
     <g id="text_14">
      <!-- 90 -->
      <defs>
       <path d="M 12.5 1.171875 
Q 21.09375 15.625 26.5625 27.34375 
Q 16.796875 25.78125 10.34375 29.875 
Q 3.90625 33.984375 2.53125 41.015625 
Q 1.171875 48.046875 2.734375 53.703125 
Q 4.296875 59.375 7.609375 63.078125 
Q 10.9375 66.796875 15.625 68.359375 
Q 20.3125 69.921875 24.015625 69.921875 
Q 27.734375 69.921875 31.640625 68.359375 
Q 35.546875 66.796875 38.671875 63.671875 
Q 41.796875 60.546875 42.96875 57.21875 
Q 44.140625 53.90625 44.140625 48.625 
Q 44.140625 43.359375 40.234375 35.15625 
Q 36.328125 26.953125 21.09375 1.171875 
z
M 9.765625 50 
Q 10.9375 39.84375 14.640625 36.515625 
Q 18.359375 33.203125 22.65625 33.59375 
Q 26.953125 33.984375 29.484375 35.9375 
Q 32.03125 37.890625 34.375 42.578125 
Q 35.9375 48.4375 35.15625 52.53125 
Q 34.375 56.640625 31.046875 59.375 
Q 27.734375 62.109375 23.828125 62.109375 
Q 21.484375 62.5 17.765625 60.9375 
Q 14.0625 59.375 11.90625 54.6875 
Q 9.765625 50 10.9375 39.84375 
z
" id="SimHei-57"/>
      </defs>
      <g transform="translate(32.703906 74.89575)scale(0.15 -0.15)">
       <use xlink:href="#SimHei-57"/>
       <use x="50" xlink:href="#SimHei-48"/>
      </g>
     </g>
    </g>
    <g id="ytick_9">
     <g id="line2d_14">
      <g>
       <use style="stroke:#000000;stroke-width:0.8;" x="51.203906" xlink:href="#ma7f13b4664" y="40.1715"/>
      </g>
     </g>
     <g id="text_15">
      <!-- 100 -->
      <g transform="translate(25.203906 45.32775)scale(0.15 -0.15)">
       <use xlink:href="#SimHei-49"/>
       <use x="50" xlink:href="#SimHei-48"/>
       <use x="100" xlink:href="#SimHei-48"/>
      </g>
     </g>
    </g>
    <g id="text_16">
     <!-- 正确率（%） -->
     <defs>
      <path d="M 75.390625 72.265625 
Q 82.8125 72.265625 88.671875 72.65625 
L 88.671875 64.84375 
Q 82.8125 65.234375 74.609375 65.234375 
L 55.859375 65.234375 
L 55.859375 40.625 
L 75.78125 40.625 
Q 82.03125 40.625 86.71875 41.015625 
L 86.71875 33.59375 
Q 82.03125 33.984375 75.78125 33.984375 
L 55.859375 33.984375 
L 55.859375 2.34375 
L 75.78125 2.34375 
Q 83.984375 2.34375 92.1875 2.734375 
L 92.1875 -5.078125 
Q 83.984375 -4.6875 77.734375 -4.6875 
L 18.359375 -4.6875 
Q 10.9375 -4.6875 5.859375 -5.078125 
L 5.859375 2.734375 
Q 10.9375 2.34375 18.359375 2.34375 
L 20.703125 2.34375 
L 20.703125 36.71875 
Q 20.703125 43.75 20.3125 48.828125 
L 29.296875 48.828125 
Q 28.90625 44.140625 28.90625 36.71875 
L 28.90625 2.34375 
L 48.046875 2.34375 
L 48.046875 65.234375 
L 25.390625 65.234375 
Q 17.96875 65.234375 12.5 64.84375 
L 12.5 72.65625 
Q 17.96875 72.265625 25.390625 72.265625 
z
" id="SimHei-27491"/>
      <path d="M 77.734375 -3.125 
Q 82.03125 -2.734375 83.78125 -1.953125 
Q 85.546875 -1.171875 85.546875 1.953125 
L 85.546875 15.234375 
L 72.265625 15.234375 
L 72.265625 -6.25 
L 65.625 -6.25 
L 65.625 15.234375 
L 54.6875 15.234375 
Q 54.296875 9.765625 51.953125 3.703125 
Q 49.609375 -2.34375 43.75 -9.375 
Q 41.015625 -5.46875 36.328125 -5.078125 
Q 41.40625 -0.78125 43.9375 4.09375 
Q 46.484375 8.984375 47.265625 15.625 
Q 48.046875 22.265625 48.234375 34.171875 
Q 48.4375 46.09375 48.046875 53.515625 
L 66.40625 53.515625 
Q 69.921875 59.765625 72.65625 66.015625 
L 56.640625 66.015625 
Q 51.953125 60.546875 44.53125 50.78125 
Q 41.40625 53.515625 37.890625 54.6875 
Q 44.921875 62.109375 49.609375 69.140625 
Q 54.296875 76.171875 56.640625 82.8125 
Q 60.9375 80.859375 65.625 79.6875 
Q 63.671875 78.515625 59.765625 71.484375 
L 83.59375 71.484375 
Q 76.5625 58.984375 74.21875 53.515625 
L 92.96875 53.515625 
Q 92.578125 46.484375 92.578125 38.28125 
L 92.578125 -0.78125 
Q 92.96875 -5.46875 90.234375 -7.21875 
Q 87.5 -8.984375 80.859375 -10.546875 
Q 80.46875 -6.640625 77.734375 -3.125 
z
M 3.125 30.859375 
Q 8.59375 35.9375 13.28125 44.328125 
Q 17.96875 52.734375 20.3125 66.015625 
Q 12.890625 66.015625 8.203125 65.625 
L 8.203125 72.65625 
Q 13.671875 72.265625 18.75 72.265625 
L 29.6875 72.265625 
Q 36.328125 72.265625 41.015625 72.65625 
L 41.015625 65.625 
Q 36.328125 66.015625 28.125 66.015625 
Q 25.78125 55.078125 21.875 45.703125 
L 39.453125 45.703125 
Q 39.0625 39.0625 39.0625 33.203125 
L 39.0625 16.796875 
Q 39.0625 10.15625 39.453125 1.953125 
L 32.421875 1.953125 
L 32.421875 9.375 
L 21.09375 9.375 
L 21.09375 -4.6875 
L 14.0625 -4.6875 
Q 14.453125 3.515625 14.453125 9.375 
L 14.453125 32.8125 
Q 12.5 29.6875 9.765625 25.390625 
Q 7.421875 28.515625 3.125 30.859375 
z
M 32.421875 15.234375 
L 32.421875 40.234375 
L 21.09375 40.234375 
L 21.09375 15.234375 
z
M 85.546875 36.71875 
L 85.546875 48.046875 
L 72.265625 48.046875 
L 72.265625 36.71875 
z
M 85.546875 20.703125 
L 85.546875 31.25 
L 72.265625 31.25 
L 72.265625 20.703125 
z
M 65.625 36.71875 
L 65.625 48.046875 
L 54.6875 48.046875 
L 54.6875 36.71875 
z
M 65.625 20.703125 
L 65.625 31.25 
L 54.6875 31.25 
L 54.6875 20.703125 
z
" id="SimHei-30830"/>
      <path d="M 51.953125 80.46875 
Q 53.515625 76.5625 55.46875 70.703125 
L 75 70.703125 
Q 82.03125 70.703125 90.625 71.09375 
L 90.625 64.453125 
Q 82.03125 65.234375 74.609375 65.234375 
L 43.75 65.234375 
Q 46.484375 63.28125 51.5625 60.9375 
Q 48.046875 58.59375 44.921875 55.265625 
Q 41.796875 51.953125 38.671875 48.828125 
L 51.171875 48.828125 
Q 55.859375 53.515625 58.984375 58.984375 
Q 62.5 56.25 66.796875 53.515625 
Q 61.71875 50.78125 56.25 44.921875 
Q 50.78125 39.0625 41.015625 31.25 
L 60.15625 32.8125 
Q 58.203125 35.15625 56.25 37.890625 
Q 58.59375 38.671875 62.5 41.40625 
Q 66.40625 36.71875 73.4375 26.5625 
Q 69.921875 25.390625 66.015625 22.65625 
Q 65.234375 25 62.890625 27.734375 
Q 57.8125 27.34375 53.515625 27.34375 
L 53.515625 16.40625 
L 80.46875 16.40625 
Q 88.671875 16.40625 95.3125 16.796875 
L 95.3125 10.15625 
Q 89.0625 10.546875 80.078125 10.546875 
L 53.515625 10.546875 
L 53.515625 2.734375 
Q 53.515625 -4.6875 53.90625 -9.765625 
L 45.3125 -9.765625 
Q 45.703125 -4.6875 45.703125 2.734375 
L 45.703125 10.546875 
L 20.703125 10.546875 
Q 12.890625 10.546875 5.078125 10.15625 
L 5.078125 16.796875 
Q 12.890625 16.40625 21.09375 16.40625 
L 45.703125 16.40625 
L 45.703125 26.5625 
Q 42.1875 26.171875 38.671875 25.578125 
Q 35.15625 25 31.640625 23.828125 
Q 30.46875 27.734375 28.90625 31.25 
Q 32.421875 31.640625 36.328125 34.375 
Q 40.234375 37.109375 46.484375 43.75 
Q 35.9375 42.578125 31.640625 41.015625 
Q 30.859375 44.921875 28.90625 49.609375 
Q 32.421875 49.609375 36.328125 54.484375 
Q 40.234375 59.375 42.96875 65.234375 
L 26.5625 65.234375 
Q 17.96875 65.234375 10.15625 64.453125 
L 10.15625 71.09375 
Q 17.96875 70.703125 24.21875 70.703125 
L 46.484375 70.703125 
Q 45.3125 75.390625 43.75 78.515625 
Q 47.265625 79.296875 51.953125 80.46875 
z
M 25.390625 40.234375 
Q 26.953125 37.5 28.515625 34.375 
Q 24.609375 32.03125 20.703125 29.09375 
Q 16.796875 26.171875 12.5 22.265625 
Q 9.765625 26.171875 7.421875 29.296875 
Q 12.5 31.640625 17.1875 34.5625 
Q 21.875 37.5 25.390625 40.234375 
z
M 75.78125 41.40625 
Q 80.078125 38.671875 83.390625 36.515625 
Q 86.71875 34.375 91.796875 30.46875 
Q 88.671875 28.125 85.9375 25 
Q 82.8125 27.734375 79.09375 30.859375 
Q 75.390625 33.984375 71.484375 36.328125 
Q 73.828125 38.671875 75.78125 41.40625 
z
M 89.453125 55.078125 
Q 86.71875 53.90625 82.8125 50.96875 
Q 78.90625 48.046875 75 44.140625 
Q 72.265625 47.65625 69.921875 49.609375 
Q 73.4375 51.953125 76.171875 54.484375 
Q 78.90625 57.03125 82.8125 61.328125 
Q 86.328125 57.8125 89.453125 55.078125 
z
M 16.40625 60.15625 
Q 22.265625 56.25 27.734375 51.171875 
Q 24.609375 48.4375 22.265625 45.703125 
Q 16.796875 51.5625 10.546875 55.078125 
Q 13.671875 57.8125 16.40625 60.15625 
z
" id="SimHei-29575"/>
      <path d="M 84.765625 79.6875 
L 89.0625 74.609375 
Q 66.796875 58.203125 67.578125 36.71875 
Q 67.96875 16.015625 88.671875 0.78125 
L 84.375 -4.296875 
Q 60.546875 12.890625 61.328125 39.0625 
Q 61.328125 60.546875 84.765625 79.6875 
z
" id="SimHei-65288"/>
      <path d="M 21.875 51.953125 
Q 21.875 40.625 18.546875 37.5 
Q 15.234375 34.375 12.109375 34.375 
Q 8.984375 34.375 5.65625 37.5 
Q 2.34375 40.625 2.34375 51.953125 
Q 2.34375 63.28125 5.65625 66.40625 
Q 8.984375 69.53125 12.109375 69.53125 
Q 15.234375 69.53125 18.546875 66.40625 
Q 21.875 63.28125 21.875 51.953125 
z
M 41.015625 68.359375 
L 10.9375 1.171875 
L 7.8125 2.34375 
L 37.890625 69.53125 
z
M 46.484375 18.75 
Q 46.484375 7.421875 43.15625 4.296875 
Q 39.84375 1.171875 36.71875 1.171875 
Q 33.59375 1.171875 30.265625 4.296875 
Q 26.953125 7.421875 26.953125 18.75 
Q 26.953125 30.078125 30.265625 33.203125 
Q 33.59375 36.328125 36.71875 36.328125 
Q 39.84375 36.328125 43.15625 33.203125 
Q 46.484375 30.078125 46.484375 18.75 
z
M 15.625 51.953125 
Q 15.625 58.984375 14.84375 61.328125 
Q 14.0625 63.671875 12.109375 63.671875 
Q 10.15625 63.671875 9.375 61.328125 
Q 8.59375 58.984375 8.59375 51.953125 
Q 8.59375 44.921875 9.375 42.578125 
Q 10.15625 40.234375 12.109375 40.234375 
Q 14.0625 40.234375 14.84375 42.578125 
Q 15.625 44.921875 15.625 51.953125 
z
M 40.234375 18.75 
Q 40.234375 25.78125 39.453125 28.125 
Q 38.671875 30.46875 36.71875 30.46875 
Q 34.765625 30.46875 33.984375 28.125 
Q 33.203125 25.78125 33.203125 18.75 
Q 33.203125 11.71875 33.984375 9.375 
Q 34.765625 7.03125 36.71875 7.03125 
Q 38.671875 7.03125 39.453125 9.375 
Q 40.234375 11.71875 40.234375 18.75 
z
" id="SimHei-37"/>
      <path d="M 15.625 79.6875 
Q 39.0625 60.546875 39.0625 39.0625 
Q 39.84375 12.890625 16.015625 -4.296875 
L 11.71875 0.78125 
Q 32.421875 16.015625 32.8125 36.71875 
Q 33.59375 58.203125 11.328125 74.609375 
L 15.625 79.6875 
z
" id="SimHei-65289"/>
     </defs>
     <g transform="translate(19.328906 199.6935)rotate(-90)scale(0.15 -0.15)">
      <use xlink:href="#SimHei-27491"/>
      <use x="100" xlink:href="#SimHei-30830"/>
      <use x="200" xlink:href="#SimHei-29575"/>
      <use x="300" xlink:href="#SimHei-65288"/>
      <use x="400" xlink:href="#SimHei-37"/>
      <use x="450" xlink:href="#SimHei-65289"/>
     </g>
    </g>
   </g>
   <g id="line2d_15">
    <path clip-path="url(#pd27ecd7daa)" d="M 86.915906 145.699692 
L 158.339906 166.899948 
L 229.763906 139.904364 
L 301.187906 126.155244 
L 372.611906 131.743596 
" style="fill:none;stroke:#000000;stroke-dasharray:5.55,2.4;stroke-dashoffset:0;stroke-opacity:0.5;stroke-width:1.5;"/>
    <defs>
     <path d="M 4.5 0 
L -4.5 -4.5 
L -4.5 4.5 
z
" id="md6d24290b4" style="stroke:#000000;stroke-linejoin:miter;stroke-opacity:0.5;"/>
    </defs>
    <g clip-path="url(#pd27ecd7daa)">
     <use style="fill-opacity:0.5;stroke:#000000;stroke-linejoin:miter;stroke-opacity:0.5;" x="86.915906" xlink:href="#md6d24290b4" y="145.699692"/>
     <use style="fill-opacity:0.5;stroke:#000000;stroke-linejoin:miter;stroke-opacity:0.5;" x="158.339906" xlink:href="#md6d24290b4" y="166.899948"/>
     <use style="fill-opacity:0.5;stroke:#000000;stroke-linejoin:miter;stroke-opacity:0.5;" x="229.763906" xlink:href="#md6d24290b4" y="139.904364"/>
     <use style="fill-opacity:0.5;stroke:#000000;stroke-linejoin:miter;stroke-opacity:0.5;" x="301.187906" xlink:href="#md6d24290b4" y="126.155244"/>
     <use style="fill-opacity:0.5;stroke:#000000;stroke-linejoin:miter;stroke-opacity:0.5;" x="372.611906" xlink:href="#md6d24290b4" y="131.743596"/>
    </g>
   </g>
   <g id="line2d_16">
    <path clip-path="url(#pd27ecd7daa)" d="M 86.915906 147.828588 
L 158.339906 147.828588 
L 229.763906 147.828588 
L 301.187906 147.828588 
L 372.611906 147.828588 
" style="fill:none;stroke:#000000;stroke-dasharray:5.55,2.4;stroke-dashoffset:0;stroke-opacity:0.5;stroke-width:1.5;"/>
    <defs>
     <path d="M 0 -4.5 
L -4.5 4.5 
L 4.5 4.5 
z
" id="m3785388110" style="stroke:#000000;stroke-linejoin:miter;stroke-opacity:0.5;"/>
    </defs>
    <g clip-path="url(#pd27ecd7daa)">
     <use style="fill-opacity:0.5;stroke:#000000;stroke-linejoin:miter;stroke-opacity:0.5;" x="86.915906" xlink:href="#m3785388110" y="147.828588"/>
     <use style="fill-opacity:0.5;stroke:#000000;stroke-linejoin:miter;stroke-opacity:0.5;" x="158.339906" xlink:href="#m3785388110" y="147.828588"/>
     <use style="fill-opacity:0.5;stroke:#000000;stroke-linejoin:miter;stroke-opacity:0.5;" x="229.763906" xlink:href="#m3785388110" y="147.828588"/>
     <use style="fill-opacity:0.5;stroke:#000000;stroke-linejoin:miter;stroke-opacity:0.5;" x="301.187906" xlink:href="#m3785388110" y="147.828588"/>
     <use style="fill-opacity:0.5;stroke:#000000;stroke-linejoin:miter;stroke-opacity:0.5;" x="372.611906" xlink:href="#m3785388110" y="147.828588"/>
    </g>
   </g>
   <g id="line2d_17">
    <path clip-path="url(#pd27ecd7daa)" d="M 86.915906 84.5235 
L 158.339906 88.781292 
L 229.763906 71.779692 
L 301.187906 86.681964 
L 372.611906 71.395308 
" style="fill:none;stroke:#000000;stroke-dasharray:5.55,2.4;stroke-dashoffset:0;stroke-opacity:0.5;stroke-width:1.5;"/>
    <defs>
     <path d="M -4.5 4.5 
L 4.5 4.5 
L 4.5 -4.5 
L -4.5 -4.5 
z
" id="mb9f45fc7ea" style="stroke:#000000;stroke-linejoin:miter;stroke-opacity:0.5;"/>
    </defs>
    <g clip-path="url(#pd27ecd7daa)">
     <use style="fill-opacity:0.5;stroke:#000000;stroke-linejoin:miter;stroke-opacity:0.5;" x="86.915906" xlink:href="#mb9f45fc7ea" y="84.5235"/>
     <use style="fill-opacity:0.5;stroke:#000000;stroke-linejoin:miter;stroke-opacity:0.5;" x="158.339906" xlink:href="#mb9f45fc7ea" y="88.781292"/>
     <use style="fill-opacity:0.5;stroke:#000000;stroke-linejoin:miter;stroke-opacity:0.5;" x="229.763906" xlink:href="#mb9f45fc7ea" y="71.779692"/>
     <use style="fill-opacity:0.5;stroke:#000000;stroke-linejoin:miter;stroke-opacity:0.5;" x="301.187906" xlink:href="#mb9f45fc7ea" y="86.681964"/>
     <use style="fill-opacity:0.5;stroke:#000000;stroke-linejoin:miter;stroke-opacity:0.5;" x="372.611906" xlink:href="#mb9f45fc7ea" y="71.395308"/>
    </g>
   </g>
   <g id="line2d_18">
    <path clip-path="url(#pd27ecd7daa)" d="M 86.915906 59.715948 
L 158.339906 69.236844 
L 229.763906 74.559084 
L 301.187906 69.88734 
L 372.611906 70.212588 
" style="fill:none;stroke:#000000;stroke-dasharray:5.55,2.4;stroke-dashoffset:0;stroke-opacity:0.5;stroke-width:1.5;"/>
    <defs>
     <path d="M 0 6.363961 
L 6.363961 0 
L 0 -6.363961 
L -6.363961 0 
z
" id="m7ba91a3734" style="stroke:#000000;stroke-linejoin:miter;stroke-opacity:0.5;"/>
    </defs>
    <g clip-path="url(#pd27ecd7daa)">
     <use style="fill-opacity:0.5;stroke:#000000;stroke-linejoin:miter;stroke-opacity:0.5;" x="86.915906" xlink:href="#m7ba91a3734" y="59.715948"/>
     <use style="fill-opacity:0.5;stroke:#000000;stroke-linejoin:miter;stroke-opacity:0.5;" x="158.339906" xlink:href="#m7ba91a3734" y="69.236844"/>
     <use style="fill-opacity:0.5;stroke:#000000;stroke-linejoin:miter;stroke-opacity:0.5;" x="229.763906" xlink:href="#m7ba91a3734" y="74.559084"/>
     <use style="fill-opacity:0.5;stroke:#000000;stroke-linejoin:miter;stroke-opacity:0.5;" x="301.187906" xlink:href="#m7ba91a3734" y="69.88734"/>
     <use style="fill-opacity:0.5;stroke:#000000;stroke-linejoin:miter;stroke-opacity:0.5;" x="372.611906" xlink:href="#m7ba91a3734" y="70.212588"/>
    </g>
   </g>
   <g id="line2d_19">
    <path clip-path="url(#pd27ecd7daa)" d="M 86.915906 51.40734 
L 158.339906 51.614316 
L 229.763906 52.44222 
L 301.187906 51.673452 
L 372.611906 59.627244 
" style="fill:none;stroke:#000000;stroke-dasharray:5.55,2.4;stroke-dashoffset:0;stroke-opacity:0.5;stroke-width:1.5;"/>
    <defs>
     <path d="M 0 4.5 
C 1.193414 4.5 2.338109 4.025852 3.181981 3.181981 
C 4.025852 2.338109 4.5 1.193414 4.5 0 
C 4.5 -1.193414 4.025852 -2.338109 3.181981 -3.181981 
C 2.338109 -4.025852 1.193414 -4.5 0 -4.5 
C -1.193414 -4.5 -2.338109 -4.025852 -3.181981 -3.181981 
C -4.025852 -2.338109 -4.5 -1.193414 -4.5 0 
C -4.5 1.193414 -4.025852 2.338109 -3.181981 3.181981 
C -2.338109 4.025852 -1.193414 4.5 0 4.5 
z
" id="mecbd507013" style="stroke:#000000;stroke-opacity:0.5;"/>
    </defs>
    <g clip-path="url(#pd27ecd7daa)">
     <use style="fill-opacity:0.5;stroke:#000000;stroke-opacity:0.5;" x="86.915906" xlink:href="#mecbd507013" y="51.40734"/>
     <use style="fill-opacity:0.5;stroke:#000000;stroke-opacity:0.5;" x="158.339906" xlink:href="#mecbd507013" y="51.614316"/>
     <use style="fill-opacity:0.5;stroke:#000000;stroke-opacity:0.5;" x="229.763906" xlink:href="#mecbd507013" y="52.44222"/>
     <use style="fill-opacity:0.5;stroke:#000000;stroke-opacity:0.5;" x="301.187906" xlink:href="#mecbd507013" y="51.673452"/>
     <use style="fill-opacity:0.5;stroke:#000000;stroke-opacity:0.5;" x="372.611906" xlink:href="#mecbd507013" y="59.627244"/>
    </g>
   </g>
   <g id="line2d_20">
    <path clip-path="url(#pd27ecd7daa)" d="M 86.915906 48.332268 
L 158.339906 48.627948 
L 229.763906 48.89406 
L 301.187906 47.090412 
L 372.611906 47.622636 
" style="fill:none;stroke:#000000;stroke-dasharray:5.55,2.4;stroke-dashoffset:0;stroke-opacity:0.5;stroke-width:1.5;"/>
    <defs>
     <path d="M 0 -4.5 
L -1.010313 -1.390576 
L -4.279754 -1.390576 
L -1.634721 0.531153 
L -2.645034 3.640576 
L -0 1.718847 
L 2.645034 3.640576 
L 1.634721 0.531153 
L 4.279754 -1.390576 
L 1.010313 -1.390576 
z
" id="m6a9fdff864" style="stroke:#000000;stroke-linejoin:bevel;stroke-opacity:0.5;"/>
    </defs>
    <g clip-path="url(#pd27ecd7daa)">
     <use style="fill-opacity:0.5;stroke:#000000;stroke-linejoin:bevel;stroke-opacity:0.5;" x="86.915906" xlink:href="#m6a9fdff864" y="48.332268"/>
     <use style="fill-opacity:0.5;stroke:#000000;stroke-linejoin:bevel;stroke-opacity:0.5;" x="158.339906" xlink:href="#m6a9fdff864" y="48.627948"/>
     <use style="fill-opacity:0.5;stroke:#000000;stroke-linejoin:bevel;stroke-opacity:0.5;" x="229.763906" xlink:href="#m6a9fdff864" y="48.89406"/>
     <use style="fill-opacity:0.5;stroke:#000000;stroke-linejoin:bevel;stroke-opacity:0.5;" x="301.187906" xlink:href="#m6a9fdff864" y="47.090412"/>
     <use style="fill-opacity:0.5;stroke:#000000;stroke-linejoin:bevel;stroke-opacity:0.5;" x="372.611906" xlink:href="#m6a9fdff864" y="47.622636"/>
    </g>
   </g>
   <g id="patch_3">
    <path d="M 51.203906 291.4995 
L 51.203906 25.3875 
" style="fill:none;stroke:#000000;stroke-linecap:square;stroke-linejoin:miter;stroke-width:0.8;"/>
   </g>
   <g id="patch_4">
    <path d="M 408.323906 291.4995 
L 408.323906 25.3875 
" style="fill:none;stroke:#000000;stroke-linecap:square;stroke-linejoin:miter;stroke-width:0.8;"/>
   </g>
   <g id="patch_5">
    <path d="M 51.203906 291.4995 
L 408.323906 291.4995 
" style="fill:none;stroke:#000000;stroke-linecap:square;stroke-linejoin:miter;stroke-width:0.8;"/>
   </g>
   <g id="patch_6">
    <path d="M 51.203906 25.3875 
L 408.323906 25.3875 
" style="fill:none;stroke:#000000;stroke-linecap:square;stroke-linejoin:miter;stroke-width:0.8;"/>
   </g>
   <g id="text_17">
    <!-- 六类模型的正确率 -->
    <defs>
     <path d="M 79.6875 53.515625 
Q 87.890625 53.515625 93.359375 54.296875 
L 93.359375 45.3125 
Q 87.890625 45.703125 80.078125 45.703125 
L 23.828125 45.703125 
Q 15.625 45.703125 7.421875 45.3125 
L 7.421875 54.296875 
Q 15.625 53.515625 23.4375 53.515625 
z
M 43.75 30.46875 
Q 35.9375 19.140625 28.3125 8.390625 
Q 20.703125 -2.34375 15.234375 -7.421875 
Q 12.109375 -4.6875 7.03125 -1.171875 
Q 17.1875 8.203125 24.796875 19.328125 
Q 32.421875 30.46875 33.984375 36.328125 
Q 38.671875 32.8125 43.75 30.46875 
z
M 66.015625 36.71875 
Q 73.046875 26.5625 77.921875 20.3125 
Q 82.8125 14.0625 91.40625 0.390625 
Q 86.328125 -2.34375 83.203125 -5.078125 
Q 77.734375 4.6875 71.875 12.890625 
Q 66.015625 21.09375 58.203125 30.859375 
Q 62.109375 33.59375 66.015625 36.71875 
z
M 45.3125 79.296875 
Q 53.515625 69.140625 58.59375 60.546875 
Q 54.296875 58.59375 50.390625 55.859375 
Q 44.921875 66.40625 38.28125 74.21875 
Q 42.578125 76.953125 45.3125 79.296875 
z
" id="SimHei-20845"/>
     <path d="M 33.203125 60.546875 
Q 27.34375 68.359375 20.703125 73.828125 
Q 23.828125 76.171875 26.171875 78.90625 
L 39.453125 66.015625 
Q 37.5 64.453125 34.375 60.546875 
L 47.265625 60.546875 
L 47.265625 71.09375 
Q 47.265625 76.5625 46.875 80.078125 
L 55.078125 80.078125 
Q 54.6875 75.78125 54.6875 71.09375 
L 54.6875 60.546875 
L 67.578125 60.546875 
Q 64.453125 63.28125 62.5 64.84375 
Q 69.53125 71.484375 75 80.859375 
Q 78.125 78.125 82.421875 75.390625 
Q 79.6875 73.046875 76.75 69.921875 
Q 73.828125 66.796875 68.75 60.546875 
L 78.515625 60.546875 
Q 84.765625 60.546875 92.1875 60.9375 
L 92.1875 53.90625 
Q 84.765625 54.296875 78.515625 54.296875 
L 54.6875 54.296875 
L 54.6875 47.65625 
Q 54.6875 41.40625 55.078125 33.984375 
L 49.609375 33.984375 
Q 54.296875 32.421875 57.421875 31.25 
Q 55.859375 29.296875 55.078125 24.609375 
L 78.515625 24.609375 
Q 86.328125 24.609375 94.140625 25 
L 94.140625 17.96875 
Q 86.71875 18.359375 78.90625 18.359375 
L 57.421875 18.359375 
Q 63.28125 9.375 73.625 4.296875 
Q 83.984375 -0.78125 94.53125 -2.734375 
Q 91.40625 -5.46875 89.453125 -10.546875 
Q 77.734375 -7.03125 67.96875 -0.578125 
Q 58.203125 5.859375 51.5625 14.84375 
Q 47.65625 5.46875 37.890625 -0.78125 
Q 28.125 -7.03125 12.109375 -10.9375 
Q 10.15625 -6.640625 7.421875 -3.515625 
Q 21.484375 -1.5625 31.4375 3.515625 
Q 41.40625 8.59375 45.3125 18.359375 
L 25.390625 18.359375 
Q 16.015625 18.359375 8.203125 17.96875 
L 8.203125 25 
Q 14.84375 24.609375 25 24.609375 
L 47.265625 24.609375 
Q 48.046875 28.515625 48.4375 33.984375 
L 46.875 33.984375 
Q 47.265625 41.796875 47.265625 47.65625 
L 47.265625 51.953125 
Q 42.578125 45.3125 34.953125 39.84375 
Q 27.34375 34.375 14.453125 28.515625 
Q 13.28125 31.640625 9.765625 35.546875 
Q 18.359375 37.5 26.953125 42.765625 
Q 35.546875 48.046875 40.625 54.296875 
L 24.21875 54.296875 
Q 16.40625 54.296875 9.375 53.515625 
L 9.375 60.9375 
Q 16.796875 60.546875 24.21875 60.546875 
z
M 64.0625 53.90625 
Q 75.78125 46.875 90.625 36.71875 
Q 87.109375 33.203125 84.765625 30.078125 
Q 73.4375 39.84375 59.765625 48.046875 
Q 62.109375 50.78125 64.0625 53.90625 
z
" id="SimHei-31867"/>
     <path d="M 89.0625 57.421875 
Q 88.671875 53.125 88.671875 42.578125 
Q 88.671875 32.03125 89.0625 26.953125 
L 68.359375 26.953125 
Q 67.96875 22.65625 67.578125 18.75 
L 81.640625 18.75 
Q 89.84375 18.75 94.140625 19.140625 
L 94.140625 12.890625 
Q 89.453125 13.28125 81.640625 13.28125 
L 73.4375 13.28125 
Q 79.296875 5.859375 84.953125 2.140625 
Q 90.625 -1.5625 96.875 -3.125 
Q 93.359375 -5.859375 91.40625 -9.765625 
Q 82.421875 -6.25 75.96875 0.390625 
Q 69.53125 7.03125 67.1875 12.109375 
L 66.015625 12.109375 
Q 62.5 4.296875 55.265625 -0.96875 
Q 48.046875 -6.25 38.671875 -9.765625 
Q 36.71875 -5.859375 33.203125 -3.125 
Q 43.359375 -1.171875 50 3.125 
Q 56.640625 7.421875 58.984375 13.28125 
L 51.953125 13.28125 
Q 43.75 13.28125 37.5 12.890625 
L 37.5 19.140625 
Q 43.75 18.75 52.34375 18.75 
L 60.546875 18.75 
Q 61.328125 23.046875 61.328125 26.953125 
L 42.96875 26.953125 
Q 43.359375 32.421875 43.359375 42.1875 
Q 43.359375 52.34375 42.96875 57.421875 
L 89.0625 57.421875 
z
M 33.984375 25.78125 
Q 31.640625 30.859375 26.171875 39.453125 
L 26.171875 4.6875 
Q 26.171875 -4.6875 26.5625 -8.59375 
L 18.359375 -8.59375 
Q 18.75 -4.296875 18.75 3.90625 
L 18.75 34.765625 
Q 17.578125 31.25 15.03125 26.75 
Q 12.5 22.265625 9.375 16.40625 
Q 7.03125 19.921875 3.125 22.265625 
Q 9.375 28.515625 13.28125 37.890625 
Q 17.1875 47.265625 18.359375 53.515625 
L 14.84375 53.515625 
Q 10.9375 53.515625 6.25 53.125 
L 6.25 59.765625 
Q 10.546875 59.375 12.890625 59.375 
L 18.75 59.375 
L 18.75 67.96875 
Q 18.75 74.609375 18.359375 80.46875 
L 26.5625 80.46875 
Q 26.171875 75.390625 26.171875 69.140625 
L 26.171875 59.375 
Q 32.421875 59.375 37.109375 59.765625 
L 37.109375 53.125 
Q 32.03125 53.515625 26.171875 53.515625 
L 26.171875 40.234375 
Q 28.90625 41.796875 31.25 43.359375 
Q 33.59375 39.453125 35.734375 36.328125 
Q 37.890625 33.203125 39.84375 30.078125 
Q 36.328125 27.734375 33.984375 25.78125 
z
M 52.734375 67.1875 
L 49.609375 67.1875 
Q 42.1875 67.1875 37.890625 66.796875 
L 37.890625 73.046875 
Q 42.1875 72.65625 49.21875 72.65625 
L 52.734375 72.65625 
Q 52.734375 78.125 52.34375 81.640625 
L 59.765625 81.640625 
Q 59.375 78.125 59.375 72.65625 
L 71.09375 72.65625 
Q 71.09375 77.734375 70.703125 81.25 
L 78.515625 81.25 
Q 78.125 76.953125 78.125 72.65625 
L 83.984375 72.65625 
Q 88.28125 72.65625 92.96875 73.046875 
L 92.96875 66.796875 
Q 88.28125 67.1875 83.984375 67.1875 
L 78.125 67.1875 
L 78.125 60.15625 
L 71.09375 60.15625 
L 71.09375 67.1875 
L 59.375 67.1875 
L 59.375 60.546875 
L 52.734375 60.546875 
z
M 82.421875 32.421875 
L 82.421875 39.453125 
L 50 39.453125 
L 50 32.421875 
z
M 82.421875 44.921875 
L 82.421875 51.953125 
L 50 51.953125 
L 50 44.921875 
z
" id="SimHei-27169"/>
     <path d="M 41.015625 27.734375 
Q 41.40625 36.328125 41.40625 42.1875 
L 41.40625 46.875 
L 28.515625 46.875 
Q 26.953125 37.109375 22.265625 31.25 
Q 17.578125 25.390625 12.109375 22.265625 
Q 10.15625 25.78125 5.859375 29.6875 
Q 13.28125 32.421875 16.59375 36.90625 
Q 19.921875 41.40625 21.09375 46.875 
Q 14.0625 46.875 5.859375 46.484375 
L 5.859375 53.90625 
Q 14.453125 53.515625 21.875 53.515625 
Q 22.265625 61.71875 22.265625 69.921875 
Q 16.796875 69.921875 10.9375 69.53125 
L 10.9375 76.5625 
Q 16.40625 76.171875 23.828125 76.171875 
L 46.875 76.171875 
Q 51.171875 76.171875 57.03125 76.5625 
L 57.03125 69.53125 
Q 51.953125 69.921875 48.828125 69.921875 
L 48.828125 53.515625 
Q 53.90625 53.515625 59.765625 53.90625 
L 59.765625 46.484375 
Q 53.90625 46.875 48.828125 46.875 
L 48.828125 41.796875 
Q 48.828125 34.765625 49.21875 27.734375 
z
M 46.875 18.359375 
Q 46.875 21.484375 46.484375 26.953125 
L 54.6875 26.953125 
Q 54.296875 21.484375 54.296875 18.359375 
L 71.09375 18.359375 
Q 78.90625 18.359375 85.15625 18.75 
L 85.15625 11.328125 
Q 77.734375 11.71875 71.09375 11.71875 
L 54.296875 11.71875 
L 54.296875 -0.78125 
L 82.421875 -0.78125 
Q 89.0625 -0.78125 95.3125 -0.390625 
L 95.3125 -7.8125 
Q 89.453125 -7.421875 82.8125 -7.421875 
L 19.53125 -7.421875 
Q 12.109375 -7.421875 6.25 -7.8125 
L 6.25 -0.390625 
Q 12.109375 -0.78125 19.53125 -0.78125 
L 46.875 -0.78125 
L 46.875 11.71875 
L 31.640625 11.71875 
Q 23.4375 11.71875 15.234375 11.328125 
L 16.40625 18.75 
Q 23.4375 18.359375 31.640625 18.359375 
z
M 90.234375 81.25 
Q 89.84375 74.609375 89.84375 67.578125 
L 89.84375 37.5 
Q 90.234375 30.46875 87.6875 27.734375 
Q 85.15625 25 76.5625 23.828125 
Q 75.390625 27.734375 73.046875 32.8125 
Q 80.859375 32.421875 81.828125 33.59375 
Q 82.8125 34.765625 82.8125 39.453125 
L 82.8125 67.578125 
Q 82.8125 74.609375 82.421875 81.25 
L 90.234375 81.25 
z
M 71.875 74.21875 
Q 71.484375 69.53125 71.484375 62.109375 
L 71.484375 50 
Q 71.484375 44.140625 71.875 37.890625 
L 64.0625 37.890625 
Q 64.453125 44.140625 64.453125 50 
L 64.453125 62.109375 
Q 64.453125 69.53125 64.0625 74.21875 
L 71.875 74.21875 
z
M 41.40625 53.515625 
L 41.40625 69.921875 
L 29.296875 69.921875 
Q 28.90625 58.59375 28.90625 53.515625 
z
" id="SimHei-22411"/>
     <path d="M 32.8125 77.734375 
Q 30.859375 74.21875 27.34375 61.71875 
L 44.921875 61.71875 
Q 44.53125 55.078125 44.53125 44.921875 
L 44.53125 10.546875 
Q 44.53125 4.6875 44.921875 -6.25 
L 37.109375 -6.25 
L 37.109375 1.5625 
L 17.1875 1.5625 
L 17.1875 -7.03125 
L 9.375 -7.03125 
Q 9.765625 5.46875 9.765625 8.59375 
L 9.765625 44.53125 
Q 9.765625 55.078125 9.375 61.71875 
L 20.703125 61.71875 
Q 22.65625 70.703125 23.828125 80.46875 
Q 29.296875 78.515625 32.8125 77.734375 
z
M 91.015625 48.046875 
Q 90.625 24.21875 89.0625 2.734375 
Q 88.28125 -4.296875 81.640625 -6.640625 
Q 75 -8.984375 66.796875 -9.765625 
Q 66.40625 -5.46875 63.28125 -0.78125 
Q 71.09375 -1.171875 75.578125 -0.390625 
Q 80.078125 0.390625 81.25 3.125 
Q 82.421875 5.859375 83 19.140625 
Q 83.59375 32.421875 83.984375 56.25 
L 61.328125 56.25 
Q 58.203125 48.828125 52.34375 38.671875 
Q 49.609375 41.40625 45.703125 42.96875 
Q 49.21875 47.65625 52.34375 54.296875 
Q 55.46875 60.9375 57.8125 68.75 
Q 60.15625 76.5625 60.546875 80.859375 
Q 66.015625 78.515625 69.921875 77.34375 
Q 67.96875 74.21875 66.59375 70.5 
Q 65.234375 66.796875 63.671875 63.28125 
L 91.40625 63.28125 
Q 91.015625 55.078125 91.015625 48.046875 
z
M 37.109375 8.203125 
L 37.109375 28.90625 
L 17.1875 28.90625 
L 17.1875 8.203125 
z
M 37.109375 35.546875 
L 37.109375 55.078125 
L 17.1875 55.078125 
L 17.1875 35.546875 
z
M 67.96875 32.03125 
Q 70.3125 27.34375 73.4375 19.921875 
Q 70.703125 18.75 66.015625 16.015625 
Q 63.28125 23.4375 60.9375 28.703125 
Q 58.59375 33.984375 56.25 37.5 
Q 58.984375 39.0625 63.28125 41.40625 
z
" id="SimHei-30340"/>
    </defs>
    <g transform="translate(169.763906 19.3875)scale(0.15 -0.15)">
     <use xlink:href="#SimHei-20845"/>
     <use x="100" xlink:href="#SimHei-31867"/>
     <use x="200" xlink:href="#SimHei-27169"/>
     <use x="300" xlink:href="#SimHei-22411"/>
     <use x="400" xlink:href="#SimHei-30340"/>
     <use x="500" xlink:href="#SimHei-27491"/>
     <use x="600" xlink:href="#SimHei-30830"/>
     <use x="700" xlink:href="#SimHei-29575"/>
    </g>
   </g>
   <g id="legend_1">
    <g id="patch_7">
     <path d="M 60.303906 284.9995 
L 153.903906 284.9995 
Q 156.503906 284.9995 156.503906 282.3995 
L 156.503906 180.3495 
Q 156.503906 177.7495 153.903906 177.7495 
L 60.303906 177.7495 
Q 57.703906 177.7495 57.703906 180.3495 
L 57.703906 282.3995 
Q 57.703906 284.9995 60.303906 284.9995 
z
" style="fill:#ffffff;opacity:0.8;"/>
    </g>
    <g id="line2d_21">
     <path d="M 62.903906 187.4995 
L 88.903906 187.4995 
" style="fill:none;stroke:#000000;stroke-dasharray:5.55,2.4;stroke-dashoffset:0;stroke-opacity:0.5;stroke-width:1.5;"/>
    </g>
    <g id="line2d_22">
     <g>
      <use style="fill-opacity:0.5;stroke:#000000;stroke-linejoin:miter;stroke-opacity:0.5;" x="75.903906" xlink:href="#md6d24290b4" y="187.4995"/>
     </g>
    </g>
    <g id="text_18">
     <!-- BP -->
     <defs>
      <path d="M 46.09375 21.875 
Q 46.09375 10.546875 39.84375 6.25 
Q 33.59375 1.953125 23.828125 1.953125 
L 4.296875 1.953125 
L 4.296875 68.75 
L 24.609375 68.75 
Q 34.375 68.75 39.25 63.671875 
Q 44.140625 58.59375 44.140625 51.5625 
Q 44.140625 44.53125 40.8125 41.203125 
Q 37.5 37.890625 33.984375 36.71875 
Q 38.671875 35.546875 42.375 31.828125 
Q 46.09375 28.125 46.09375 21.875 
z
M 35.15625 51.5625 
Q 35.15625 56.640625 32.21875 58.984375 
Q 29.296875 61.328125 25 61.328125 
L 13.28125 61.328125 
L 13.28125 40.625 
L 24.609375 40.625 
Q 28.90625 40.625 32.03125 43.15625 
Q 35.15625 45.703125 35.15625 51.5625 
z
M 36.71875 21.875 
Q 36.71875 28.125 32.609375 30.65625 
Q 28.515625 33.203125 23.4375 33.203125 
L 13.28125 33.203125 
L 13.28125 9.375 
L 22.265625 9.375 
Q 29.296875 9.375 33 12.109375 
Q 36.71875 14.84375 36.71875 21.875 
z
" id="SimHei-66"/>
      <path d="M 46.09375 48.4375 
Q 46.09375 39.0625 40.625 33.59375 
Q 35.15625 28.125 25.390625 28.125 
L 14.0625 28.125 
L 14.0625 1.953125 
L 5.078125 1.953125 
L 5.078125 68.75 
L 25.390625 68.75 
Q 35.15625 68.75 40.625 63.28125 
Q 46.09375 57.8125 46.09375 48.4375 
z
M 37.109375 48.4375 
Q 37.109375 55.859375 33.59375 58.59375 
Q 30.078125 61.328125 23.046875 61.328125 
L 14.0625 61.328125 
L 14.0625 35.546875 
L 23.046875 35.546875 
Q 30.078125 35.546875 33.59375 38.28125 
Q 37.109375 41.015625 37.109375 48.4375 
z
" id="SimHei-80"/>
     </defs>
     <g transform="translate(99.303906 192.0495)scale(0.13 -0.13)">
      <use xlink:href="#SimHei-66"/>
      <use x="50" xlink:href="#SimHei-80"/>
     </g>
    </g>
    <g id="line2d_23">
     <path d="M 62.903906 204.7245 
L 88.903906 204.7245 
" style="fill:none;stroke:#000000;stroke-dasharray:5.55,2.4;stroke-dashoffset:0;stroke-opacity:0.5;stroke-width:1.5;"/>
    </g>
    <g id="line2d_24">
     <g>
      <use style="fill-opacity:0.5;stroke:#000000;stroke-linejoin:miter;stroke-opacity:0.5;" x="75.903906" xlink:href="#m3785388110" y="204.7245"/>
     </g>
    </g>
    <g id="text_19">
     <!-- SVM -->
     <defs>
      <path d="M 45.3125 20.703125 
Q 45.3125 11.71875 39.640625 6.4375 
Q 33.984375 1.171875 24.21875 1.171875 
Q 14.453125 1.171875 8.984375 6.640625 
Q 3.515625 12.109375 3.515625 20.3125 
L 3.515625 23.046875 
L 12.5 23.046875 
L 12.5 20.703125 
Q 12.5 14.84375 16.015625 11.71875 
Q 19.53125 8.59375 24.21875 8.59375 
Q 30.46875 8.59375 33.390625 11.90625 
Q 36.328125 15.234375 36.328125 19.921875 
Q 36.328125 23.828125 32.8125 27.140625 
Q 29.296875 30.46875 22.65625 33.203125 
Q 13.28125 36.71875 9.171875 41.015625 
Q 5.078125 45.3125 5.078125 51.171875 
Q 5.078125 59.375 10.734375 64.453125 
Q 16.40625 69.53125 24.21875 69.53125 
Q 34.375 69.53125 38.859375 63.46875 
Q 43.359375 57.421875 43.359375 50.390625 
L 34.375 50.390625 
Q 34.765625 54.6875 32.03125 58.203125 
Q 29.296875 61.71875 24.21875 61.71875 
Q 19.53125 61.71875 16.796875 59.171875 
Q 14.0625 56.640625 14.0625 52.34375 
Q 14.0625 48.828125 16.203125 46.28125 
Q 18.359375 43.75 27.34375 40.234375 
Q 35.9375 36.71875 40.625 31.828125 
Q 45.3125 26.953125 45.3125 20.703125 
z
" id="SimHei-83"/>
      <path d="M 47.65625 68.75 
L 28.125 1.171875 
L 20.3125 1.171875 
L 0.78125 68.75 
L 10.15625 68.75 
L 23.828125 17.578125 
L 24.609375 17.578125 
L 38.28125 68.75 
z
" id="SimHei-86"/>
      <path d="M 45.703125 1.953125 
L 37.890625 1.953125 
L 37.890625 49.609375 
L 37.109375 49.609375 
L 27.734375 1.953125 
L 21.484375 1.953125 
L 12.109375 49.609375 
L 11.328125 49.609375 
L 11.328125 1.953125 
L 3.515625 1.953125 
L 3.515625 68.75 
L 15.625 68.75 
L 24.21875 24.609375 
L 25 24.609375 
L 33.59375 68.75 
L 45.703125 68.75 
z
" id="SimHei-77"/>
     </defs>
     <g transform="translate(99.303906 209.2745)scale(0.13 -0.13)">
      <use xlink:href="#SimHei-83"/>
      <use x="50" xlink:href="#SimHei-86"/>
      <use x="100" xlink:href="#SimHei-77"/>
     </g>
    </g>
    <g id="line2d_25">
     <path d="M 62.903906 221.9495 
L 88.903906 221.9495 
" style="fill:none;stroke:#000000;stroke-dasharray:5.55,2.4;stroke-dashoffset:0;stroke-opacity:0.5;stroke-width:1.5;"/>
    </g>
    <g id="line2d_26">
     <g>
      <use style="fill-opacity:0.5;stroke:#000000;stroke-linejoin:miter;stroke-opacity:0.5;" x="75.903906" xlink:href="#mb9f45fc7ea" y="221.9495"/>
     </g>
    </g>
    <g id="text_20">
     <!-- PCA -->
     <defs>
      <path d="M 46.484375 28.515625 
Q 46.09375 13.671875 40.234375 7.421875 
Q 34.375 1.171875 26.171875 1.171875 
Q 16.796875 1.171875 10.15625 8.78125 
Q 3.515625 16.40625 3.515625 33.203125 
Q 3.515625 51.5625 9.953125 60.546875 
Q 16.40625 69.53125 26.5625 69.53125 
Q 35.15625 69.53125 40.8125 63.078125 
Q 46.484375 56.640625 46.09375 44.921875 
L 37.5 44.921875 
Q 37.5 53.515625 34.765625 57.8125 
Q 32.03125 62.109375 26.5625 62.109375 
Q 20.3125 62.109375 16.59375 55.65625 
Q 12.890625 49.21875 12.890625 33.984375 
Q 12.890625 19.921875 16.59375 14.25 
Q 20.3125 8.59375 26.171875 8.59375 
Q 30.46875 8.59375 33.984375 12.6875 
Q 37.5 16.796875 37.5 28.515625 
z
" id="SimHei-67"/>
      <path d="M 48.046875 1.953125 
L 38.671875 1.953125 
L 33.203125 22.65625 
L 16.015625 22.65625 
L 10.546875 1.953125 
L 1.171875 1.953125 
L 20.703125 69.53125 
L 28.515625 69.53125 
z
M 31.25 30.078125 
L 25 53.90625 
L 24.21875 53.90625 
L 17.96875 30.078125 
z
" id="SimHei-65"/>
     </defs>
     <g transform="translate(99.303906 226.4995)scale(0.13 -0.13)">
      <use xlink:href="#SimHei-80"/>
      <use x="50" xlink:href="#SimHei-67"/>
      <use x="100" xlink:href="#SimHei-65"/>
     </g>
    </g>
    <g id="line2d_27">
     <path d="M 62.903906 239.1745 
L 88.903906 239.1745 
" style="fill:none;stroke:#000000;stroke-dasharray:5.55,2.4;stroke-dashoffset:0;stroke-opacity:0.5;stroke-width:1.5;"/>
    </g>
    <g id="line2d_28">
     <g>
      <use style="fill-opacity:0.5;stroke:#000000;stroke-linejoin:miter;stroke-opacity:0.5;" x="75.903906" xlink:href="#m7ba91a3734" y="239.1745"/>
     </g>
    </g>
    <g id="text_21">
     <!-- KPCA -->
     <defs>
      <path d="M 47.65625 1.953125 
L 37.5 1.953125 
L 19.53125 35.15625 
L 13.28125 26.953125 
L 13.28125 1.953125 
L 4.296875 1.953125 
L 4.296875 68.75 
L 13.28125 68.75 
L 13.28125 39.84375 
L 35.546875 68.75 
L 46.09375 68.75 
L 25.390625 42.578125 
z
" id="SimHei-75"/>
     </defs>
     <g transform="translate(99.303906 243.7245)scale(0.13 -0.13)">
      <use xlink:href="#SimHei-75"/>
      <use x="50" xlink:href="#SimHei-80"/>
      <use x="100" xlink:href="#SimHei-67"/>
      <use x="150" xlink:href="#SimHei-65"/>
     </g>
    </g>
    <g id="line2d_29">
     <path d="M 62.903906 256.3995 
L 88.903906 256.3995 
" style="fill:none;stroke:#000000;stroke-dasharray:5.55,2.4;stroke-dashoffset:0;stroke-opacity:0.5;stroke-width:1.5;"/>
    </g>
    <g id="line2d_30">
     <g>
      <use style="fill-opacity:0.5;stroke:#000000;stroke-opacity:0.5;" x="75.903906" xlink:href="#mecbd507013" y="256.3995"/>
     </g>
    </g>
    <g id="text_22">
     <!-- DAE -->
     <defs>
      <path d="M 45.703125 35.15625 
Q 45.703125 17.1875 38.078125 9.5625 
Q 30.46875 1.953125 17.578125 1.953125 
L 4.296875 1.953125 
L 4.296875 68.75 
L 17.578125 68.75 
Q 32.03125 68.75 38.859375 60.9375 
Q 45.703125 53.125 45.703125 35.15625 
z
M 36.328125 35.15625 
Q 36.328125 49.609375 31.640625 55.46875 
Q 26.953125 61.328125 17.578125 61.328125 
L 13.28125 61.328125 
L 13.28125 9.375 
L 17.578125 9.375 
Q 26.953125 9.375 31.640625 15.03125 
Q 36.328125 20.703125 36.328125 35.15625 
z
" id="SimHei-68"/>
      <path d="M 45.3125 1.953125 
L 5.46875 1.953125 
L 5.46875 68.75 
L 43.359375 68.75 
L 43.359375 61.328125 
L 14.453125 61.328125 
L 14.453125 40.625 
L 41.015625 40.625 
L 41.015625 33.203125 
L 14.453125 33.203125 
L 14.453125 9.375 
L 45.3125 9.375 
z
" id="SimHei-69"/>
     </defs>
     <g transform="translate(99.303906 260.9495)scale(0.13 -0.13)">
      <use xlink:href="#SimHei-68"/>
      <use x="50" xlink:href="#SimHei-65"/>
      <use x="100" xlink:href="#SimHei-69"/>
     </g>
    </g>
    <g id="line2d_31">
     <path d="M 62.903906 273.6245 
L 88.903906 273.6245 
" style="fill:none;stroke:#000000;stroke-dasharray:5.55,2.4;stroke-dashoffset:0;stroke-opacity:0.5;stroke-width:1.5;"/>
    </g>
    <g id="line2d_32">
     <g>
      <use style="fill-opacity:0.5;stroke:#000000;stroke-linejoin:bevel;stroke-opacity:0.5;" x="75.903906" xlink:href="#m6a9fdff864" y="273.6245"/>
     </g>
    </g>
    <g id="text_23">
     <!-- LSTM-DAE -->
     <defs>
      <path d="M 45.3125 1.953125 
L 4.6875 1.953125 
L 4.6875 68.75 
L 13.671875 68.75 
L 13.671875 9.375 
L 45.3125 9.375 
z
" id="SimHei-76"/>
      <path d="M 44.53125 61.328125 
L 28.90625 61.328125 
L 28.90625 1.953125 
L 19.921875 1.953125 
L 19.921875 61.328125 
L 4.296875 61.328125 
L 4.296875 68.75 
L 44.53125 68.75 
z
" id="SimHei-84"/>
      <path d="M 46.484375 33.203125 
L 1.953125 33.203125 
L 1.953125 39.453125 
L 46.484375 39.453125 
z
" id="SimHei-45"/>
     </defs>
     <g transform="translate(99.303906 278.1745)scale(0.13 -0.13)">
      <use xlink:href="#SimHei-76"/>
      <use x="50" xlink:href="#SimHei-83"/>
      <use x="100" xlink:href="#SimHei-84"/>
      <use x="150" xlink:href="#SimHei-77"/>
      <use x="200" xlink:href="#SimHei-45"/>
      <use x="250" xlink:href="#SimHei-68"/>
      <use x="300" xlink:href="#SimHei-65"/>
      <use x="350" xlink:href="#SimHei-69"/>
     </g>
    </g>
   </g>
  </g>
 </g>
 <defs>
  <clipPath id="pd27ecd7daa">
   <rect height="266.112" width="357.12" x="51.203906" y="25.3875"/>
  </clipPath>
 </defs>
</svg>
